<svg alt="{{ site.title }}" style="fill: #002D72" version="1.0" 
  xmlns="http://www.w3.org/2000/svg" viewBox="0 0 1705.3 296" preserveAspectRatio="xMidYMid meet">
  <g transform="matrix(0.1,0,0,-0.1,-125.7,479)">
    <path id="path192" d="m 14110,3310 c 0,-1473 0,-1480 20,-1480 20,0 20,7 20,1480 0,1473 0,1480 -20,1480 -20,0 -20,-7 -20,-1480 z" />
    <path id="path194" d="m 1980,4339 c -236,-14 -632,-71 -699,-99 l -24,-11 5,-259 c 2,-143 6,-262 9,-265 3,-2 50,4 105,15 282,54 566,80 880,80 323,0 567,-21 859,-75 71,-13 131,-22 134,-19 3,2 7,121 9,263 4,245 4,259 -14,269 -11,5 -84,21 -164,36 -367,66 -730,87 -1100,65 z m 208,-118 72,-21 73,21 c 55,16 110,22 232,26 l 160,4 69,-33 68,-33 79,-174 c 43,-96 79,-180 79,-188 0,-9 -7,-12 -17,-9 -10,3 -67,12 -128,21 -348,48 -882,48 -1230,0 -60,-9 -118,-18 -127,-21 -11,-3 -18,0 -18,9 0,8 36,92 79,188 l 79,174 68,33 69,33 160,-4 c 122,-4 177,-10 233,-26 z" />
    <path id="path196" d="m 1752,4151 c -29,-15 -41,-35 -83,-130 -45,-105 -47,-113 -26,-107 59,16 268,28 409,24 87,-3 158,-1 158,3 0,12 -149,48 -242,58 -48,6 -119,7 -159,4 -83,-7 -80,-16 -36,100 14,37 23,67 19,67 -4,-1 -22,-9 -40,-19 z" />
    <path id="path198" d="m 2750,4089 c 17,-44 30,-83 30,-86 0,-3 -31,-3 -70,0 -38,3 -108,2 -154,-3 -86,-9 -246,-47 -246,-59 0,-3 107,-6 238,-7 130,-1 259,-6 287,-12 27,-6 52,-9 54,-6 2,2 -18,53 -44,112 -41,95 -52,112 -82,126 -18,9 -36,16 -38,16 -3,0 9,-36 25,-81 z" />
    <path id="path200" d="m 3727,4094 c -11,-11 3,-24 27,-24 41,0 83,-20 95,-46 15,-33 15,-822 0,-930 -18,-134 -40,-155 -140,-134 -54,12 -61,11 -80,-6 -12,-11 -19,-28 -17,-43 3,-23 8,-26 51,-29 108,-7 221,69 273,183 34,74 43,205 44,623 0,315 1,333 19,351 11,11 36,23 55,27 21,3 36,12 36,20 0,11 -33,14 -178,14 -98,0 -182,-3 -185,-6 z" />
    <path id="path202" d="m 7597,4094 c -11,-12 3,-24 28,-24 40,0 73,-21 85,-53 6,-19 10,-167 10,-397 0,-351 -1,-368 -20,-393 -11,-14 -35,-28 -55,-31 -21,-4 -35,-13 -35,-22 0,-12 26,-14 177,-12 120,2 178,7 180,14 2,7 -14,14 -40,18 -58,9 -76,23 -87,71 -11,44 -13,314 -4,339 5,14 38,16 268,16 190,0 265,-3 274,-12 16,-16 15,-310 -1,-358 -10,-30 -19,-37 -59,-49 -27,-8 -48,-20 -48,-28 0,-10 36,-13 175,-13 149,0 175,2 175,15 0,8 -6,15 -12,15 -42,0 -87,22 -97,48 -8,20 -11,139 -9,411 3,368 4,383 23,397 11,8 36,17 57,21 23,3 38,11 38,19 0,11 -33,14 -175,14 -142,0 -175,-3 -175,-14 0,-8 15,-16 38,-20 70,-11 76,-26 80,-204 2,-95 -1,-163 -7,-172 -9,-13 -50,-15 -271,-15 -221,0 -262,2 -271,15 -6,9 -9,78 -7,171 3,178 10,194 80,205 23,4 38,12 38,20 0,11 -33,14 -173,14 -96,0 -177,-3 -180,-6 z" />
    <path id="path204" d="m 4392,3954 c -142,-38 -248,-140 -287,-278 -25,-88 -17,-223 17,-298 57,-124 174,-208 317,-228 193,-27 365,61 444,227 30,65 32,74 32,188 0,115 -1,123 -33,187 -84,171 -289,256 -490,202 z m 223,-44 c 91,-44 152,-135 181,-270 41,-191 -24,-373 -155,-437 -21,-10 -67,-19 -111,-21 -69,-4 -80,-1 -140,30 -53,27 -73,44 -105,93 -61,90 -80,159 -79,285 0,116 17,176 69,244 74,97 226,131 340,76 z" />
    <path id="path206" d="m 6925,3961 c -114,-28 -178,-129 -154,-242 14,-65 63,-118 184,-199 120,-81 147,-116 149,-194 1,-97 -58,-149 -160,-144 -86,5 -133,38 -171,117 -35,75 -58,82 -48,14 13,-93 24,-122 54,-138 73,-37 228,-38 298,-2 106,56 143,183 87,296 -28,56 -62,85 -198,175 -95,61 -132,117 -120,180 26,144 245,151 296,10 6,-19 18,-34 26,-34 12,0 13,12 8,61 -4,33 -9,66 -12,73 -10,27 -166,44 -239,27 z" />
    <path id="path208" d="m 8921,3954 c -309,-83 -414,-478 -184,-695 65,-61 136,-95 228,-108 192,-27 365,60 446,225 28,56 33,78 37,162 5,110 -16,191 -68,268 -93,134 -283,195 -459,148 z m 227,-48 c 122,-62 186,-194 186,-381 -1,-80 -5,-112 -24,-159 -64,-165 -233,-233 -388,-155 -71,35 -104,71 -144,154 -37,81 -51,162 -45,264 9,147 79,250 199,293 67,24 150,18 216,-16 z" />
    <path id="path210" d="m 12335,3961 c -155,-38 -211,-210 -108,-331 20,-23 82,-72 138,-110 120,-81 147,-116 149,-194 1,-97 -58,-149 -160,-144 -86,5 -133,38 -171,117 -35,75 -58,82 -48,14 13,-93 24,-122 54,-138 73,-37 228,-38 298,-2 105,55 143,184 87,296 -28,56 -62,85 -198,175 -95,61 -132,117 -120,180 26,144 245,151 296,10 6,-19 18,-34 26,-34 12,0 13,12 8,61 -4,33 -9,66 -12,73 -10,27 -166,44 -239,27 z" />
    <path id="path212" d="m 4940,3941 c 0,-5 16,-12 35,-15 65,-12 65,-14 65,-373 0,-310 -1,-324 -20,-343 -11,-11 -31,-20 -45,-20 -16,0 -25,-6 -25,-15 0,-13 23,-15 150,-15 127,0 150,2 150,15 0,10 -11,15 -35,15 -22,0 -43,8 -55,20 -19,19 -20,31 -18,178 l 3,157 h 225 225 l 3,-161 c 3,-177 2,-180 -59,-193 -16,-3 -31,-10 -32,-16 -1,-6 54,-11 146,-13 126,-2 147,0 147,13 0,10 -10,15 -30,15 -17,0 -39,9 -50,20 -19,19 -20,33 -20,343 0,359 0,361 65,373 76,14 28,24 -115,24 -143,0 -191,-10 -115,-24 62,-12 65,-21 65,-181 0,-140 0,-143 -22,-149 -30,-8 -386,-8 -415,0 -23,6 -23,9 -23,149 0,160 3,169 65,181 76,14 28,24 -115,24 -82,0 -150,-4 -150,-9 z" />
    <path id="path214" d="m 5850,3941 c 0,-5 20,-14 45,-20 76,-19 79,-31 83,-281 2,-118 -1,-262 -6,-319 -10,-114 -20,-131 -74,-131 -18,0 -28,-5 -28,-15 0,-13 22,-15 135,-15 113,0 135,2 135,15 0,10 -10,15 -33,15 -48,0 -69,20 -78,76 -11,66 -11,534 -1,534 5,0 29,-24 53,-52 24,-29 139,-162 255,-294 116,-133 224,-257 240,-277 15,-20 32,-33 36,-31 4,3 8,159 8,347 0,206 4,357 11,379 9,34 15,39 54,49 25,6 45,15 45,20 0,5 -63,9 -140,9 -86,0 -140,-4 -140,-10 0,-5 17,-13 39,-16 53,-8 61,-15 71,-60 12,-48 13,-514 2,-514 -18,0 -459,506 -500,573 -16,26 -18,27 -114,27 -54,0 -98,-4 -98,-9 z" />
    <path id="path216" d="m 9477,3943 c -14,-14 -6,-21 32,-28 22,-4 46,-14 53,-22 10,-13 13,-88 13,-339 0,-357 1,-349 -64,-363 -18,-3 -32,-10 -31,-16 0,-6 57,-10 150,-10 93,0 150,4 150,10 1,6 -16,13 -36,16 -75,13 -75,9 -72,388 l 3,336 45,3 c 68,5 107,-6 147,-41 46,-41 63,-82 63,-154 0,-93 -46,-157 -135,-187 -58,-20 -57,-37 2,-30 80,11 148,41 187,84 77,85 74,205 -8,286 -62,62 -113,74 -321,74 -94,0 -175,-3 -178,-7 z" />
    <path id="path218" d="m 10070,3941 c 0,-5 16,-12 35,-15 67,-13 65,-2 65,-367 0,-316 -1,-330 -20,-349 -11,-11 -31,-20 -45,-20 -16,0 -25,-6 -25,-15 0,-13 23,-15 145,-15 122,0 145,2 145,15 0,10 -10,15 -30,15 -17,0 -39,9 -50,20 -18,18 -20,33 -20,179 0,180 5,192 64,141 51,-45 281,-309 281,-323 0,-6 -12,-13 -27,-15 -16,-2 -28,-9 -28,-18 0,-11 25,-14 140,-14 112,0 140,3 140,14 0,8 -15,16 -37,19 -30,5 -53,22 -114,84 -113,115 -289,321 -289,337 0,17 182,192 262,251 34,25 78,48 108,55 27,7 50,16 50,21 0,5 -59,9 -131,9 -100,0 -130,-3 -127,-12 3,-7 14,-14 26,-16 12,-2 22,-11 22,-19 0,-26 -292,-313 -318,-313 -22,0 -22,3 -22,149 0,166 3,175 65,187 76,14 28,24 -115,24 -82,0 -150,-4 -150,-9 z" />
    <path id="path220" d="m 10890,3941 c 0,-5 18,-12 39,-16 22,-4 46,-14 53,-22 10,-13 13,-89 13,-344 0,-363 2,-354 -64,-368 -18,-3 -32,-11 -32,-16 1,-6 60,-11 151,-13 129,-2 150,0 150,13 0,10 -10,15 -29,15 -16,0 -39,9 -52,19 l -24,19 -3,319 c -2,361 -2,362 66,377 78,18 43,26 -113,26 -87,0 -155,-4 -155,-9 z" />
    <path id="path222" d="m 11260,3941 c 0,-5 20,-14 45,-20 34,-9 51,-20 65,-44 19,-30 20,-50 19,-292 -1,-363 -7,-395 -81,-395 -18,0 -28,-5 -28,-15 0,-13 22,-15 141,-15 108,0 140,3 137,13 -3,6 -23,15 -47,18 -23,3 -46,10 -52,16 -6,6 -15,42 -19,79 -12,90 -13,501 -1,508 5,3 31,-20 57,-52 27,-31 128,-147 224,-257 97,-110 204,-233 238,-273 37,-43 64,-68 67,-60 2,7 6,173 7,368 2,195 7,363 12,373 5,9 28,22 52,28 24,6 44,15 44,20 0,5 -63,9 -140,9 -87,0 -140,-4 -140,-10 0,-5 6,-10 13,-10 6,0 29,-5 49,-10 30,-9 39,-17 49,-48 16,-47 19,-517 4,-517 -20,0 -425,455 -483,543 l -35,52 h -98 c -55,0 -99,-4 -99,-9 z" />
    <path id="path224" d="m 16610,3670 v -240 h 50 50 v 109 c 0,110 0,110 29,130 37,27 87,28 101,2 5,-11 10,-69 10,-130 v -111 h 45 45 v 140 c 0,162 -9,192 -64,210 -41,13 -90,3 -136,-30 l -30,-21 v 90 91 h -50 -50 z" />
    <path id="path226" d="m 17840,3670 v -240 h 50 50 v 240 240 h -50 -50 z" />
    <path id="path228" d="m 15960,3880 c -73,-18 -116,-103 -87,-173 18,-43 44,-61 138,-96 78,-28 101,-50 83,-78 -17,-27 -90,-28 -155,-3 -30,11 -57,20 -60,20 -11,0 -31,-58 -25,-69 14,-21 122,-53 186,-54 110,-1 160,42 160,138 0,62 -31,92 -130,129 -113,43 -138,79 -75,108 25,11 71,6 151,-17 17,-5 24,0 34,25 11,27 11,33 -1,41 -40,26 -165,43 -219,29 z" />
    <path id="path230" d="m 15581,3780 c -83,-20 -116,-72 -116,-182 0,-86 15,-117 75,-152 46,-27 142,-26 198,3 44,23 48,30 32,61 -9,17 -13,18 -45,4 -19,-7 -57,-14 -84,-14 -42,0 -53,4 -70,26 -39,50 -32,54 99,54 h 120 v 42 c 0,53 -32,119 -67,140 -36,20 -99,29 -142,18 z m 104,-85 c 45,-44 35,-55 -55,-55 -65,0 -80,3 -80,15 0,27 47,65 80,65 19,0 40,-9 55,-25 z" />
    <path id="path232" d="m 16373,3780 c -51,-12 -83,-38 -104,-83 -40,-90 -11,-210 61,-252 49,-28 143,-26 199,5 40,23 40,23 24,50 -15,27 -17,27 -49,14 -54,-23 -107,-18 -135,12 -19,20 -24,36 -24,79 0,71 29,105 91,105 24,0 54,-4 67,-9 22,-9 27,-6 38,21 15,36 8,42 -64,58 -53,11 -58,11 -104,0 z" />
    <path id="path234" d="m 17139,3781 c -111,-22 -164,-158 -106,-271 30,-60 71,-82 151,-83 125,-1 197,83 179,211 -14,105 -110,166 -224,143 z m 106,-96 c 21,-20 25,-34 25,-80 0,-46 -4,-60 -25,-80 -40,-41 -105,-33 -130,16 -27,51 -11,147 27,162 34,14 80,6 103,-18 z" />
    <path id="path236" d="m 17549,3781 c -111,-22 -164,-158 -106,-271 30,-60 71,-82 151,-83 125,-1 197,83 179,211 -14,105 -110,166 -224,143 z m 106,-96 c 21,-20 25,-34 25,-80 0,-46 -4,-60 -25,-80 -40,-41 -105,-33 -130,16 -27,51 -11,147 27,162 34,14 80,6 103,-18 z" />
    <path id="path238" d="m 18130,3695 v -55 h -60 -60 v -35 -35 h 60 60 v -55 c 0,-54 0,-55 30,-55 30,0 30,1 30,55 v 55 h 60 60 v 35 34 l -57,3 -58,3 -3,53 c -3,50 -4,52 -33,52 -29,0 -29,-1 -29,-55 z" />
    <path id="path240" d="m 1920,3689 c -199,-14 -589,-70 -620,-89 -16,-10 22,-183 76,-348 107,-327 317,-646 559,-852 77,-66 252,-190 267,-190 4,0 8,335 8,745 v 745 l -87,-1 c -49,-1 -140,-6 -203,-10 z m 43,-173 c 141,-67 226,-229 196,-374 -32,-156 -154,-270 -311,-288 -72,-8 -174,22 -241,71 -158,117 -180,357 -47,508 97,111 268,146 403,83 z" />
    <path id="path242" d="m 1670,3448 c -63,-39 -71,-53 -33,-62 21,-6 30,-3 44,15 21,29 51,79 47,79 -2,0 -28,-15 -58,-32 z" />
    <path id="path244" d="m 1932,3432 c 17,-26 33,-49 34,-50 1,-2 17,-1 35,3 l 31,7 -28,29 c -16,15 -46,35 -66,44 l -37,15 z" />
    <path id="path246" d="m 1757,3412 -27,-42 25,-6 c 34,-8 37,-4 33,47 l -3,43 z" />
    <path id="path248" d="m 1850,3402 c 0,-39 2,-43 22,-40 31,4 32,19 3,53 l -24,30 z" />
    <path id="path250" d="m 1546,3304 c -24,-71 -23,-74 34,-74 46,0 50,2 56,28 3,15 8,35 11,44 4,18 -6,24 -63,42 -19,6 -24,0 -38,-40 z" />
    <path id="path252" d="m 2030,3335 c -33,-12 -35,-14 -32,-56 2,-24 4,-45 6,-47 2,-2 26,-2 54,0 l 49,3 -12,48 c -16,62 -23,67 -65,52 z" />
    <path id="path254" d="m 1707,3303 c -3,-5 -8,-23 -12,-40 l -7,-33 h 51 51 v 34 c 0,26 -5,35 -22,40 -31,8 -56,7 -61,-1 z" />
    <path id="path256" d="m 1863,3303 c -7,-2 -13,-20 -13,-39 0,-34 0,-34 45,-34 41,0 45,2 45,24 0,41 -11,56 -39,55 -14,0 -32,-3 -38,-6 z" />
    <path id="path258" d="m 1530,3155 c 0,-27 32,-95 45,-95 6,0 26,5 43,11 33,11 34,14 15,82 -6,23 -103,26 -103,2 z" />
    <path id="path260" d="m 1695,3138 c 10,-45 15,-48 58,-41 34,5 37,8 37,39 v 34 h -51 -51 z" />
    <path id="path262" d="m 1850,3136 c 0,-31 3,-34 36,-41 42,-7 54,3 54,48 0,25 -3,27 -45,27 -44,0 -45,0 -45,-34 z" />
    <path id="path264" d="m 1996,3129 c -8,-48 -7,-49 38,-64 32,-11 35,-10 46,14 7,14 16,41 20,59 l 8,32 h -53 -52 z" />
    <path id="path266" d="m 1730,3035 c 0,-7 52,-85 56,-85 2,0 4,20 4,45 0,43 -1,45 -30,45 -16,0 -30,-2 -30,-5 z" />
    <path id="path268" d="m 1850,2998 1,-43 24,30 c 32,38 32,55 0,55 -23,0 -25,-4 -25,-42 z" />
    <path id="path270" d="m 1616,3011 c -18,-7 -16,-10 15,-33 77,-58 108,-63 74,-12 -14,20 -25,41 -25,45 0,11 -37,11 -64,0 z" />
    <path id="path272" d="m 1932,2971 -30,-49 27,9 c 15,5 44,24 66,41 34,28 36,33 19,39 -38,15 -52,8 -82,-40 z" />
    <path id="path274" d="m 2310,3602 v -99 l 85,-56 c 47,-32 87,-57 90,-57 3,0 5,70 5,155 v 155 h -90 -90 z" />
    <path id="path276" d="m 2680,3471 c 0,-116 -2,-211 -5,-211 -3,0 -46,27 -95,60 l -90,60 -2,-215 -3,-215 -82,55 c -45,30 -85,55 -88,55 -3,0 -5,-192 -5,-426 0,-374 2,-425 15,-420 8,3 49,28 90,56 l 75,51 v 310 c 0,272 2,310 15,305 8,-3 49,-28 90,-56 l 75,-51 v 211 c 0,139 4,210 10,210 6,0 43,-22 83,-48 40,-27 78,-52 85,-56 9,-6 12,48 12,253 0,297 12,266 -107,277 l -73,7 z" />
    <path id="path278" d="m 3051,3323 v -308 l 26,55 c 59,129 167,510 149,528 -6,6 -132,31 -158,32 -17,0 -18,-21 -17,-307 z" />
    <path id="path280" d="m 2870,2920 c 0,-110 2,-200 4,-200 6,0 93,136 134,211 l 42,76 -85,56 c -47,32 -87,57 -90,57 -3,0 -5,-90 -5,-200 z" />
    <path id="path282" d="m 16140,3022 c -46,-37 0,-96 59,-77 32,10 39,54 11,77 -12,10 -28,18 -35,18 -7,0 -23,-8 -35,-18 z" />
    <path id="path284" d="m 16590,3022 c -46,-37 0,-96 59,-77 32,10 39,54 11,77 -12,10 -28,18 -35,18 -7,0 -23,-8 -35,-18 z" />
    <path id="path286" d="m 17430,3022 c -46,-37 0,-96 59,-77 32,10 39,54 11,77 -12,10 -28,18 -35,18 -7,0 -23,-8 -35,-18 z" />
    <path id="path288" d="m 15510,2755 v -225 h 50 50 v 225 225 h -50 -50 z" />
    <path id="path290" d="m 16320,2930 c 0,-36 -2,-40 -25,-40 -22,0 -25,-4 -25,-40 0,-36 3,-40 25,-40 24,0 25,-2 25,-77 1,-151 25,-196 107,-197 26,0 60,3 74,7 22,5 25,11 21,37 -4,27 -8,30 -41,30 -54,0 -61,12 -61,112 v 88 h 45 45 v 40 40 h -45 -45 v 40 40 h -50 -50 z" />
    <path id="path292" d="m 17160,2930 c 0,-36 -2,-40 -25,-40 -22,0 -25,-4 -25,-40 0,-36 3,-40 25,-40 24,0 25,-2 25,-77 1,-151 25,-196 107,-197 26,0 60,3 74,7 22,5 25,11 21,37 -4,27 -8,30 -41,30 -54,0 -61,12 -61,112 v 88 h 45 45 v 40 40 h -45 -45 v 40 40 h -50 -50 z" />
    <path id="path294" d="m 15876,2875 c -21,-7 -43,-18 -49,-24 -17,-17 -27,-13 -27,9 0,17 -7,20 -50,20 h -50 v -175 -175 h 50 50 v 110 c 0,99 2,111 22,129 42,40 101,39 112,-1 3,-13 6,-71 6,-130 v -108 h 45 45 v 140 c 0,160 -9,191 -61,209 -40,14 -45,13 -93,-4 z" />
    <path id="path296" d="m 16848,2876 c -32,-7 -60,-14 -62,-17 -2,-2 -2,-16 1,-31 l 5,-28 74,7 c 81,7 104,-3 104,-42 0,-20 -6,-23 -74,-28 -94,-7 -132,-26 -145,-73 -13,-48 -4,-87 25,-115 33,-31 107,-31 157,-1 36,21 37,21 37,2 0,-17 7,-20 45,-20 h 45 v 134 c 0,74 -4,146 -10,160 -20,53 -102,75 -202,52 z m 122,-221 c 0,-28 -5,-37 -30,-50 -38,-20 -69,-19 -92,2 -47,42 -9,79 85,82 36,1 37,0 37,-34 z" />
    <path id="path298" d="m 18091,2880 c -83,-20 -116,-72 -116,-182 0,-86 15,-117 75,-152 46,-27 142,-26 198,3 44,23 48,30 32,61 -9,17 -13,18 -45,4 -19,-7 -57,-14 -84,-14 -42,0 -53,4 -70,26 -39,50 -32,54 99,54 h 120 v 42 c 0,53 -32,119 -67,140 -36,20 -99,29 -142,18 z m 104,-85 c 45,-44 35,-55 -55,-55 -65,0 -80,3 -80,15 0,27 47,65 80,65 19,0 40,-9 55,-25 z" />
    <path id="path300" d="m 16130,2705 v -175 h 45 45 v 175 175 h -45 -45 z" />
    <path id="path302" d="m 16580,2705 v -175 h 45 45 v 175 175 h -45 -45 z" />
    <path id="path304" d="m 17420,2705 v -175 h 45 45 v 175 175 h -45 -45 z" />
    <path id="path306" d="m 17573,2848 c 8,-18 40,-97 72,-175 l 58,-143 h 51 51 l 57,138 c 32,75 64,154 73,175 l 15,37 h -47 -48 l -50,-120 c -27,-66 -52,-116 -55,-112 -4,4 -26,58 -51,119 l -44,113 h -48 -47 z" />
    <path id="path308" d="m 2680,2653 c 0,-143 2,-165 14,-153 39,42 131,148 147,172 l 20,27 -91,61 -90,61 z" />
    <path id="path310" d="m 10224,2745 c -6,-25 -8,-45 -6,-45 2,0 13,11 24,25 18,24 26,26 82,23 l 61,-3 3,-125 c 2,-69 0,-149 -3,-178 -6,-47 -10,-54 -38,-66 -31,-14 -28,-14 56,-15 56,-1 86,3 82,9 -3,6 -14,10 -25,10 -10,0 -21,7 -24,16 -3,9 -6,92 -6,185 v 169 h 56 c 64,0 94,-13 94,-40 0,-43 18,-17 22,30 2,31 0,46 -6,40 -13,-13 -333,-13 -341,0 -12,19 -21,10 -31,-35 z" />
    <path id="path312" d="m 9160,2763 c -22,-12 -39,-30 -48,-54 -19,-51 2,-99 65,-141 77,-53 103,-83 103,-118 0,-40 -39,-80 -77,-80 -39,0 -91,34 -99,65 -10,40 -27,30 -19,-12 9,-51 28,-63 98,-63 93,0 136,34 137,107 0,50 -35,97 -105,138 -52,30 -78,73 -69,110 8,31 32,45 78,45 36,0 76,-30 76,-57 0,-7 4,-13 9,-13 8,0 4,68 -4,78 -2,2 -27,5 -56,8 -40,4 -63,1 -89,-13 z" />
    <path id="path314" d="m 4921,2759 c 32,-12 39,-50 39,-201 0,-113 13,-154 59,-181 42,-24 146,-23 188,3 54,33 66,69 72,225 6,136 7,140 31,152 22,11 18,13 -45,13 -63,0 -67,-2 -45,-13 21,-11 26,-22 33,-77 10,-80 2,-190 -17,-235 -28,-66 -128,-87 -185,-39 -41,34 -51,77 -51,215 0,121 3,132 45,142 11,2 -18,5 -65,5 -66,0 -79,-2 -59,-9 z" />
    <path id="path316" d="m 5698,2750 32,-20 v -159 c 0,-166 -3,-191 -25,-191 -8,0 -17,-4 -20,-10 -4,-6 21,-10 67,-9 69,1 71,1 44,14 -17,7 -33,21 -37,31 -10,26 -11,286 -1,282 5,-1 73,-77 153,-167 l 144,-165 5,191 c 3,105 7,194 10,197 3,3 17,9 30,15 20,8 9,10 -50,10 -60,-1 -70,-3 -49,-10 18,-7 29,-20 33,-41 9,-46 7,-260 -3,-256 -13,5 -220,238 -245,275 -19,30 -26,33 -71,33 h -50 z" />
    <path id="path318" d="m 6491,2759 c 15,-6 30,-20 33,-32 8,-30 8,-301 0,-322 -4,-9 -18,-22 -33,-28 -25,-11 -25,-11 17,-15 23,-2 61,-2 85,0 41,4 41,4 16,15 -15,6 -29,19 -33,28 -3,9 -6,85 -6,169 0,159 5,180 45,189 11,3 -18,5 -65,5 -66,0 -79,-2 -59,-9 z" />
    <path id="path320" d="m 6982,2759 c 28,-11 41,-36 139,-286 24,-62 48,-113 52,-113 4,0 10,8 14,18 14,42 127,301 146,334 11,21 32,42 46,47 21,7 12,9 -44,10 -52,0 -64,-3 -47,-9 12,-5 22,-14 22,-20 0,-14 -109,-273 -119,-283 -8,-8 -102,206 -116,265 -6,23 -3,29 16,37 18,7 4,10 -56,10 -64,-1 -75,-3 -53,-10 z" />
    <path id="path322" d="m 7743,2758 27,-10 v -179 -179 l -32,-14 c -30,-13 -21,-14 123,-15 l 157,-1 10,28 c 19,52 21,62 12,62 -6,0 -10,-4 -10,-9 0,-4 -11,-20 -25,-35 -21,-23 -32,-26 -89,-26 -89,0 -98,10 -94,109 l 3,76 42,3 c 50,4 83,-11 83,-38 0,-11 3,-20 8,-20 4,0 7,29 7,65 0,36 -3,65 -7,65 -5,0 -8,-9 -8,-20 0,-27 -33,-42 -83,-38 l -42,3 -3,83 -3,82 h 69 c 54,0 72,-4 85,-18 10,-10 17,-24 17,-30 0,-7 5,-12 11,-12 6,0 8,7 5,16 -3,9 -6,27 -6,40 v 24 l -142,-1 c -108,0 -136,-3 -115,-11 z" />
    <path id="path324" d="m 8400,2761 c 0,-6 8,-11 19,-11 25,0 31,-35 31,-191 0,-132 -9,-179 -34,-179 -8,0 -18,-4 -21,-10 -4,-6 22,-10 69,-10 44,0 76,4 76,10 0,6 -9,10 -20,10 -25,0 -32,27 -28,105 3,59 3,60 33,60 26,0 36,-10 81,-75 58,-84 93,-110 144,-109 28,0 31,2 15,9 -11,4 -34,23 -51,41 -31,34 -104,138 -104,150 0,3 11,11 25,17 58,27 69,116 19,163 -23,22 -35,24 -140,27 -77,3 -114,0 -114,-7 z m 176,-16 c 75,-31 80,-141 7,-172 -19,-8 -47,-13 -62,-11 -26,3 -26,4 -29,92 -4,111 8,123 84,91 z" />
    <path id="path326" d="m 9705,2763 c 40,-9 45,-30 45,-194 0,-87 -3,-164 -6,-173 -3,-9 -14,-16 -24,-16 -11,0 -22,-4 -25,-10 -4,-6 23,-10 75,-10 52,0 79,4 75,10 -3,6 -13,10 -21,10 -25,0 -34,47 -34,188 0,161 4,178 39,191 20,7 7,9 -59,9 -47,0 -76,-2 -65,-5 z" />
    <path id="path328" d="m 10955,2751 c 21,-13 46,-51 83,-123 51,-101 53,-108 50,-174 -3,-60 -6,-69 -23,-72 -11,-2 -24,-8 -29,-13 -6,-5 26,-9 79,-9 53,0 85,4 80,9 -6,5 -19,11 -30,13 -18,3 -20,12 -23,81 -3,78 -2,80 44,160 53,92 80,125 109,137 14,6 -1,9 -45,9 -57,0 -62,-1 -43,-12 22,-12 22,-12 -29,-107 l -51,-94 -46,93 c -45,90 -45,93 -27,107 18,13 12,14 -55,14 h -74 z" />
  </g>
</svg>