<svg version="1.1" xmlns="http://www.w3.org/2000/svg"	xmlns:xlink="http://www.w3.org/1999/xlink" x="0px" y="0px" viewBox="0 0 300 296.3" xml:space="preserve">
	<style type="text/css">
	.st0 {fill:#2361FF;}
	.st1 {fill:#FF9100;}
	</style>
	<g>
		<path class="st0" d="M19.2,96H102c10.6,0,19.2-8.6,19.2-19.2V19.2C121.2,8.6,112.6,0,102,0H19.2C8.6,0,0,8.6,0,19.2v57.6 C0,87.4,8.6,96,19.2,96z M14.2,19.2c0-2.8,2.3-5,5-5H102c2.8,0,5,2.3,5,5v57.6c0,2.8-2.3,5-5,5H19.2c-2.8,0-5-2.3-5-5V19.2z"/>
		<path class="st0" d="M154.9,145.4h82.8c10.6,0,19.2-8.6,19.2-19.2v-107c0-10.6-8.6-19.2-19.2-19.2h-82.8 c-10.6,0-19.2,8.6-19.2,19.2v107C135.7,136.8,144.3,145.4,154.9,145.4z M149.9,19.2c0-2.8,2.3-5,5-5h82.8c2.8,0,5,2.3,5,5v107 c0,2.8-2.3,5-5,5h-82.8c-2.8,0-5-2.3-5-5V19.2z"/>
		<path class="st1" d="M226.7,256.9l-2.7-14.2h-69.1c-2.8,0-5-2.3-5-5v-57.6c0-2.8,2.3-5,5-5h82.8c2.8,0,5,2.3,5,5v34.9l14.2,8.3	v-43.2c0-10.6-8.6-19.2-19.2-19.2h-82.8c-10.6,0-19.2,8.6-19.2,19.2v57.6c0,10.6,8.6,19.2,19.2,19.2H226.7z"/>
		<path class="st0" d="M19.2,256.9H102c10.6,0,19.2-8.6,19.2-19.2v-107c0-10.6-8.6-19.2-19.2-19.2H19.2C8.6,111.5,0,120.2,0,130.7 v107C0,248.3,8.6,256.9,19.2,256.9z M14.2,130.7c0-2.8,2.3-5,5-5H102c2.8,0,5,2.3,5,5v107c0,2.8-2.3,5-5,5H19.2c-2.8,0-5-2.3-5-5 V130.7z"/>
		<path class="st0" d="M242.8,215.1l-18.5-10.8c-3.2-1.8-7.3,0.9-6.8,4.5l6.4,34.1l2.7,14.2l6.8,35.7c0.5,4.1,5.9,4.5,7.7,1.4 l18.2-32.7l36.8-5.9c4.1-0.5,5.5-5.9,1.8-8.2l-40.9-24L242.8,215.1z"/>
	</g>
</svg>