<?xml version="1.0" encoding="utf-8"?>
<!-- Generator: Adobe Illustrator 25.2.0, SVG Export Plug-In . SVG Version: 6.00 Build 0)  -->
<svg version="1.1" id="Слой_1" xmlns="http://www.w3.org/2000/svg" xmlns:xlink="http://www.w3.org/1999/xlink" x="0px" y="0px"
	 viewBox="0 0 250 50" style="enable-background:new 0 0 250 50;" xml:space="preserve">
<style type="text/css">
	.st0{display:none;}
	.st1{fill:#2361FF;}
	.st2{fill:#FF9100;}
</style>
<g id="q4yk6h_1_" class="st0">
</g>
<g>
	<path class="st1" d="M69.5,11.2c-1,0.5-1.8,0.6-2.5,0.6c-2.1,0-3.5-0.7-4.5-1.6c-1-1-1.8-2.5-1.8-4.3s0.7-3.3,1.8-4.3
		c1-1,2.5-1.6,4.2-1.6c0.7,0,1.6,0.2,2.7,0.6v3C68.9,3,68,2.4,66.8,2.4c-1,0-1.7,0.3-2.3,0.9c-0.6,0.6-1.1,1.5-1.1,2.6
		c0,1.2,0.5,2,1,2.5c0.2,0.2,1.1,1,2.4,1c0.7,0,1.6-0.2,2.6-1.2L69.5,11.2L69.5,11.2z"/>
	<path class="st1" d="M81.6,1.6c1.1,1,1.8,2.5,1.8,4.3c0,1.5-0.5,3.1-1.8,4.2c-1.1,1-2.5,1.7-4.4,1.7c-2.1,0-3.6-0.8-4.4-1.7
		C71.7,9.2,71,7.6,71,6s0.7-3.3,1.8-4.3C73.5,0.9,74.9,0,77.2,0C79,0,80.5,0.5,81.6,1.6z M74.7,3.4c-0.5,0.5-1,1.3-1,2.6
		c0,1,0.3,1.9,1,2.5c0.7,0.7,1.5,0.9,2.4,0.9c1.2,0,2-0.4,2.5-1c0.4-0.4,1-1.2,1-2.5c0-1.2-0.5-2-1-2.5c-0.6-0.5-1.5-1-2.5-1
		C76.2,2.4,75.3,2.8,74.7,3.4z"/>
	<path class="st1" d="M86.4,0.3l2.9,7.3l2.9-7.3H95l-4.8,11.3h-1.8L83.6,0.3H86.4z"/>
	<path class="st1" d="M98.9,0.3v11.3h-2.6V0.3H98.9z"/>
	<path class="st1" d="M105.1,0.3c1.5,0,3.1,0.2,4.5,1.6c1,1,1.6,2.3,1.6,4.1s-0.6,3.1-1.5,4c-1.6,1.6-3.5,1.7-4.5,1.7h-3.7V0.3
		H105.1z M104.1,9.4h0.7c0.5,0,1.7-0.1,2.6-0.8c0.6-0.5,1.1-1.5,1.1-2.7s-0.5-2-0.9-2.4c-0.9-0.8-2-1-2.8-1h-0.7
		C104.1,2.5,104.1,9.4,104.1,9.4z"/>
	<path class="st1" d="M112.7,4.7h4.4v2.1h-4.4V4.7z"/>
	<path class="st1" d="M121.8,2.5h-1.6V0.3h4.2v11.3h-2.6V2.5z"/>
	<path class="st1" d="M128.6,11.6l3-3.7C131.2,8,130.9,8,130.5,8c-1.2,0-2.2-0.4-2.9-1.1c-0.6-0.6-1-1.5-1-2.7c0-1.7,0.8-2.6,1.1-3
		c1.1-1.2,2.7-1.3,3.6-1.3c1.8,0,2.8,0.6,3.4,1.1c0.6,0.5,1.2,1.5,1.2,2.9c0,0.7-0.2,1.5-0.5,2.3c-0.3,0.6-0.8,1.4-1.3,2.1l-2.6,3.4
		L128.6,11.6z M129.9,2.7c-0.2,0.2-0.6,0.6-0.6,1.4c0,0.7,0.3,1.2,0.6,1.5c0.4,0.3,0.9,0.5,1.4,0.5c0.6,0,1.1-0.2,1.4-0.5
		c0.3-0.3,0.6-0.7,0.6-1.5c0-0.5-0.2-1-0.6-1.4c-0.3-0.3-0.7-0.5-1.4-0.5C130.8,2.1,130.3,2.3,129.9,2.7z"/>
	<path class="st1" d="M147,5.4h5.6v0.1c0,1.4-0.5,3.5-1.8,4.8s-2.7,1.5-4,1.5c-1.4,0-2.8-0.2-4.1-1.6C142,9.5,141,8.1,141,5.9
		c0-1.9,0.7-3.3,1.6-4.3c1.4-1.4,3.1-1.6,4.5-1.6c0.9,0,2.1,0.2,3.2,0.8c0.8,0.5,1.4,1.3,1.8,2l-2.4,1.3c-0.2-0.4-0.6-0.9-1-1.2
		c-0.5-0.4-1.1-0.5-1.7-0.5c-1,0-1.8,0.3-2.3,0.9c-0.6,0.7-1,1.6-1,2.7c0,1.3,0.5,2.1,1,2.6c0.7,0.7,1.4,0.9,2.3,0.9
		c1.1,0,1.7-0.4,2-0.6c0.1-0.1,0.6-0.5,0.8-1.3H147V5.4z"/>
	<path class="st1" d="M157.2,0.3v9.1h3.5v2.2h-6.1V0.3H157.2z"/>
	<path class="st1" d="M171.9,1.6c1.1,1,1.8,2.5,1.8,4.3c0,1.5-0.5,3.1-1.8,4.2c-1.1,1-2.5,1.7-4.4,1.7c-2.1,0-3.6-0.8-4.4-1.7
		c-1.1-1-1.8-2.5-1.8-4.2c0-1.6,0.7-3.3,1.8-4.3c0.8-0.8,2.2-1.7,4.4-1.7C169.3,0,170.8,0.5,171.9,1.6z M165,3.4
		c-0.5,0.5-1,1.3-1,2.6c0,1,0.3,1.9,1,2.5c0.7,0.7,1.5,0.9,2.4,0.9c1.2,0,2-0.4,2.5-1c0.4-0.4,1-1.2,1-2.5c0-1.2-0.5-2-1-2.5
		c-0.6-0.5-1.5-1-2.5-1C166.5,2.4,165.7,2.8,165,3.4z"/>
	<path class="st1" d="M179.1,0.3c0.6,0,2,0,2.9,0.9c0.7,0.7,0.8,1.6,0.8,2.1c0,0.4-0.1,1-0.4,1.4c-0.3,0.5-0.7,0.7-1,0.8
		c0.5,0.1,1.2,0.4,1.6,0.8c0.4,0.4,0.7,1,0.7,2c0,1.1-0.4,1.9-0.9,2.3c-0.9,0.9-2.3,1-3,1h-4.3V0.3H179.1z M178.2,4.9h0.4
		c0.4,0,1-0.1,1.3-0.3c0.2-0.2,0.5-0.5,0.5-1s-0.2-0.8-0.4-1c-0.4-0.3-0.9-0.3-1.4-0.3h-0.4L178.2,4.9L178.2,4.9z M178.2,9.6h0.6
		c0.7,0,1.5,0,1.9-0.5c0.2-0.2,0.4-0.5,0.4-1s-0.2-0.8-0.4-0.9c-0.5-0.4-1.3-0.4-1.9-0.4h-0.7L178.2,9.6L178.2,9.6z"/>
	<path class="st1" d="M192.4,9.5h-4.3l-0.9,2.1h-2.7l4.6-11.3h2.4l4.5,11.3h-2.7L192.4,9.5z M191.7,7.4l-1.4-3.8l-1.4,3.8H191.7z"/>
	<path class="st1" d="M199.9,0.3v9.1h3.5v2.2h-6.1V0.3H199.9z"/>
</g>
<g>
	<path class="st1" d="M67.7,18.2h-3.8v2.2h3.6v2.2h-3.6v2.5h3.8v2.2h-6.4V16h6.4C67.7,16,67.7,18.2,67.7,18.2z"/>
	<path class="st1" d="M73.4,16c1.5,0,3.1,0.2,4.5,1.6c1,1,1.6,2.3,1.6,4.1c0,1.8-0.6,3.1-1.5,4c-1.6,1.6-3.5,1.7-4.5,1.7h-3.7V16
		H73.4z M72.4,25.1h0.7c0.5,0,1.7-0.1,2.6-0.8c0.6-0.5,1.1-1.5,1.1-2.7s-0.5-2-0.9-2.4c-0.9-0.8-2-1-2.8-1h-0.7
		C72.4,18.2,72.4,25.1,72.4,25.1z"/>
	<path class="st1" d="M91,22.7c0,1.1-0.1,2.4-1.3,3.6c-1.1,1.1-2.3,1.3-3.5,1.3s-2.4-0.2-3.5-1.3c-1.1-1.2-1.3-2.5-1.3-3.6V16H84
		v6.6c0,0.5,0,1.3,0.6,1.9c0.5,0.5,1.1,0.6,1.6,0.6s1.1-0.1,1.6-0.6c0.6-0.6,0.6-1.4,0.6-1.9V16H91V22.7z"/>
	<path class="st1" d="M101.7,27c-1,0.5-1.8,0.6-2.5,0.6c-2.1,0-3.5-0.7-4.5-1.6c-1-1-1.8-2.5-1.8-4.3s0.7-3.3,1.8-4.3
		c1-1,2.5-1.6,4.2-1.6c0.7,0,1.6,0.2,2.7,0.6v3c-0.6-0.6-1.4-1.2-2.7-1.2c-1,0-1.7,0.3-2.3,0.9c-0.6,0.6-1.1,1.5-1.1,2.6
		c0,1.2,0.5,2,1,2.5c0.2,0.2,1.1,1,2.4,1c0.7,0,1.6-0.2,2.6-1.2v3H101.7z"/>
	<path class="st1" d="M110.5,25.2h-4.3l-0.9,2.1h-2.7l4.6-11.3h2.4l4.5,11.3h-2.7L110.5,25.2z M109.7,23.2l-1.4-3.8l-1.4,3.8H109.7z
		"/>
	<path class="st1" d="M118.6,18.2v9.1H116v-9.1h-2.5V16h7.5v2.2H118.6z"/>
	<path class="st1" d="M125.1,16v11.3h-2.6V16H125.1z"/>
	<path class="st1" d="M137.7,17.4c1.1,1,1.8,2.5,1.8,4.3c0,1.5-0.5,3.1-1.8,4.2c-1.1,1-2.5,1.7-4.4,1.7c-2.1,0-3.6-0.8-4.4-1.7
		c-1.1-1-1.8-2.5-1.8-4.2c0-1.6,0.7-3.3,1.8-4.3c0.8-0.8,2.2-1.7,4.4-1.7C135,15.8,136.5,16.3,137.7,17.4z M130.8,19.1
		c-0.5,0.5-1,1.3-1,2.6c0,1,0.3,1.9,1,2.5c0.7,0.7,1.5,0.9,2.4,0.9c1.2,0,2-0.4,2.5-1c0.4-0.4,1-1.2,1-2.5c0-1.2-0.5-2-1-2.5
		c-0.6-0.5-1.5-1-2.5-1C132.3,18.2,131.4,18.5,130.8,19.1z"/>
	<path class="st1" d="M141.4,27.3V16h2.3l6.2,7.3V16h2.6v11.3h-2.3L144,20v7.3H141.4z"/>
	<path class="st1" d="M162.9,16c1.4,0,2.3,0.5,2.9,1c0.5,0.5,1,1.3,1,2.5c0,0.7-0.2,1.6-0.9,2.3c-0.4,0.4-1,0.7-1.6,0.9l3.5,4.6
		h-3.2l-3.1-4.5v4.5h-2.6V16H162.9z M161.5,21.2h0.6c0.5,0,1.1-0.1,1.6-0.5c0.2-0.2,0.4-0.5,0.4-1.1s-0.3-1-0.5-1.2
		c-0.4-0.3-1.1-0.4-1.4-0.4h-0.6v3.2H161.5z"/>
	<path class="st1" d="M175.6,18.2h-3.8v2.2h3.6v2.2h-3.6v2.5h3.8v2.2h-6.4V16h6.4V18.2z"/>
	<path class="st1" d="M185.9,27c-1,0.5-1.8,0.6-2.5,0.6c-2.1,0-3.5-0.7-4.5-1.6c-1-1-1.8-2.5-1.8-4.3s0.7-3.3,1.8-4.3
		c1-1,2.5-1.6,4.2-1.6c0.7,0,1.6,0.2,2.7,0.6v3c-0.6-0.6-1.4-1.2-2.7-1.2c-1,0-1.7,0.3-2.3,0.9s-1.1,1.5-1.1,2.6c0,1.2,0.5,2,1,2.5
		c0.2,0.2,1.1,1,2.4,1c0.7,0,1.6-0.2,2.6-1.2v3H185.9z"/>
	<path class="st1" d="M198.1,17.4c1.1,1,1.8,2.5,1.8,4.3c0,1.5-0.5,3.1-1.8,4.2c-1.1,1-2.5,1.7-4.4,1.7c-2.1,0-3.6-0.8-4.4-1.7
		c-1.1-1-1.8-2.5-1.8-4.2c0-1.6,0.7-3.3,1.8-4.3c0.8-0.8,2.2-1.7,4.4-1.7C195.4,15.8,196.9,16.3,198.1,17.4z M191.2,19.1
		c-0.5,0.5-1,1.3-1,2.6c0,1,0.3,1.9,1,2.5c0.7,0.7,1.5,0.9,2.4,0.9c1.2,0,2-0.4,2.5-1c0.4-0.4,1-1.2,1-2.5c0-1.2-0.5-2-1-2.5
		c-0.6-0.5-1.5-1-2.5-1C192.7,18.2,191.8,18.5,191.2,19.1z"/>
	<path class="st1" d="M202.9,16l2.9,7.3l2.9-7.3h2.8l-4.8,11.3h-1.8L200,16H202.9z"/>
	<path class="st1" d="M219.1,18.2h-3.8v2.2h3.6v2.2h-3.6v2.5h3.8v2.2h-6.4V16h6.4V18.2z"/>
	<path class="st1" d="M225.2,16c1.4,0,2.3,0.5,2.9,1c0.5,0.5,1,1.3,1,2.5c0,0.7-0.2,1.6-0.9,2.3c-0.4,0.4-1,0.7-1.6,0.9l3.5,4.6
		h-3.2l-3.1-4.5v4.5h-2.6V16H225.2z M223.9,21.2h0.6c0.5,0,1.1-0.1,1.6-0.5c0.2-0.2,0.4-0.5,0.4-1.1s-0.3-1-0.5-1.2
		c-0.4-0.3-1.1-0.4-1.4-0.4H224v3.2H223.9z"/>
	<path class="st1" d="M234,22.1l-4-6.1h3.1l2.3,3.5l2.3-3.5h3.1l-4.1,6.1v5.3H234V22.1z"/>
</g>
<g>
	<path class="st1" d="M65.2,34v9.1h-2.6V34h-2.5v-2.2h7.5V34H65.2z"/>
	<path class="st1" d="M73.1,31.8c1.4,0,2.3,0.5,2.9,1c0.5,0.5,1,1.3,1,2.5c0,0.7-0.2,1.6-0.9,2.3c-0.4,0.4-1,0.7-1.6,0.9l3.5,4.6
		h-3.2l-3.1-4.5v4.5h-2.6V31.8H73.1z M71.7,36.9h0.6c0.5,0,1.1-0.1,1.6-0.5c0.2-0.2,0.4-0.5,0.4-1.1s-0.3-1-0.5-1.2
		c-0.4-0.3-1.1-0.4-1.4-0.4h-0.6L71.7,36.9L71.7,36.9z"/>
	<path class="st1" d="M86.2,41H82l-0.9,2.1h-2.7L83,31.8h2.4l4.5,11.3h-2.7L86.2,41z M85.5,39l-1.4-3.8L82.7,39H85.5z"/>
	<path class="st1" d="M98.9,42.7c-1,0.5-1.8,0.6-2.5,0.6c-2.1,0-3.5-0.7-4.5-1.6c-1-1-1.8-2.5-1.8-4.3s0.7-3.3,1.8-4.3
		c1-1,2.5-1.6,4.2-1.6c0.7,0,1.6,0.2,2.7,0.6v3c-0.6-0.6-1.4-1.2-2.7-1.2c-1,0-1.7,0.3-2.3,0.9c-0.6,0.6-1.1,1.5-1.1,2.6
		c0,1.2,0.5,2,1,2.5c0.2,0.2,1.1,1,2.4,1c0.7,0,1.6-0.2,2.6-1.2v3H98.9z"/>
	<path class="st1" d="M103.7,36.5l3.9-4.7h3.2l-4.6,5.4l4.9,6h-3.4l-4.1-5v5H101V31.8h2.6L103.7,36.5L103.7,36.5z"/>
	<path class="st1" d="M118.8,34H115v2.2h3.6v2.2H115v2.5h3.8v2.2h-6.4V31.8h6.4V34z"/>
	<path class="st1" d="M124.9,31.8c1.4,0,2.3,0.5,2.9,1c0.5,0.5,1,1.3,1,2.5c0,0.7-0.2,1.6-0.9,2.3c-0.4,0.4-1,0.7-1.6,0.9l3.5,4.6
		h-3.2l-3.1-4.5v4.5H121V31.8H124.9z M123.6,36.9h0.6c0.5,0,1.1-0.1,1.6-0.5c0.2-0.2,0.4-0.5,0.4-1.1s-0.3-1-0.5-1.2
		c-0.4-0.3-1.1-0.4-1.4-0.4h-0.6L123.6,36.9L123.6,36.9z"/>
</g>
<path class="st1" d="M3.2,16.2h14c1.8,0,3.2-1.5,3.2-3.2V3.2C20.5,1.5,19,0,17.2,0h-14C1.5,0,0,1.5,0,3.2V13
	C0,14.7,1.5,16.2,3.2,16.2z M2.4,3.2c0-0.5,0.4-0.8,0.8-0.8h14c0.5,0,0.8,0.4,0.8,0.8V13c0,0.5-0.4,0.8-0.8,0.8h-14
	c-0.5,0-0.8-0.4-0.8-0.8C2.4,13,2.4,3.2,2.4,3.2z"/>
<path class="st1" d="M26.1,24.5h14c1.8,0,3.2-1.5,3.2-3.2V3.2c0-1.8-1.5-3.2-3.2-3.2h-14c-1.8,0-3.2,1.5-3.2,3.2v18.1
	C22.9,23.1,24.4,24.5,26.1,24.5z M25.3,3.2c0-0.5,0.4-0.8,0.8-0.8h14c0.5,0,0.8,0.4,0.8,0.8v18.1c0,0.5-0.4,0.8-0.8,0.8h-14
	c-0.5,0-0.8-0.4-0.8-0.8V3.2z"/>
<path class="st2" d="M38.3,43.4L37.8,41H26.1c-0.5,0-0.8-0.4-0.8-0.8v-9.7c0-0.5,0.4-0.8,0.8-0.8h14c0.5,0,0.8,0.4,0.8,0.8v5.9
	l2.4,1.4v-7.3c0-1.8-1.5-3.2-3.2-3.2h-14c-1.8,0-3.2,1.5-3.2,3.2v9.7c0,1.8,1.5,3.2,3.2,3.2C26.1,43.4,38.3,43.4,38.3,43.4z"/>
<path class="st1" d="M3.2,43.4h14c1.8,0,3.2-1.5,3.2-3.2V22.1c0-1.8-1.5-3.2-3.2-3.2h-14c-1.8,0-3.2,1.5-3.2,3.2v18.1
	C0,41.9,1.5,43.4,3.2,43.4z M2.4,22.1c0-0.5,0.4-0.8,0.8-0.8h14c0.5,0,0.8,0.4,0.8,0.8v18.1c0,0.5-0.4,0.8-0.8,0.8h-14
	c-0.5,0-0.8-0.4-0.8-0.8C2.4,40.2,2.4,22.1,2.4,22.1z"/>
<path class="st1" d="M41,36.3l-3.1-1.8c-0.5-0.3-1.2,0.2-1.1,0.8l1.1,5.8l0.5,2.4l1.1,6c0.1,0.7,1,0.8,1.3,0.2l3.1-5.5l6.2-1
	c0.7-0.1,0.9-1,0.3-1.4l-6.9-4L41,36.3z"/>
</svg>
