<?xml version="1.0" encoding="utf-8"?>
<!-- Generator: Adobe Illustrator 25.2.0, SVG Export Plug-In . SVG Version: 6.00 Build 0)  -->
<svg version="1.1" id="Слой_1" xmlns="http://www.w3.org/2000/svg" xmlns:xlink="http://www.w3.org/1999/xlink" x="0px" y="0px"
	 viewBox="0 0 250 50" style="enable-background:new 0 0 250 50;" xml:space="preserve">
<style type="text/css">
	.st0{display:none;}
	.st1{fill:#2361FF;}
	.st2{fill:#FF9100;}
</style>
<g id="q4yk6h_1_" class="st0">
</g>
<g>
	<path class="st1" d="M67.9,21.3c-0.9,0.5-1.6,0.6-2.3,0.6c-1.9,0-3.2-0.6-4-1.5c-0.9-0.9-1.6-2.2-1.6-3.9c0-1.6,0.7-3,1.6-3.8
		c0.9-0.9,2.2-1.5,3.8-1.5c0.7,0,1.5,0.1,2.5,0.6v2.7c-0.5-0.6-1.3-1.1-2.4-1.1c-0.9,0-1.5,0.3-2.1,0.8c-0.6,0.6-1,1.4-1,2.4
		c0,1.1,0.4,1.8,0.9,2.3c0.2,0.2,1,0.9,2.2,0.9c0.6,0,1.4-0.2,2.3-1.1L67.9,21.3L67.9,21.3z"/>
	<path class="st1" d="M78.8,12.7c1,0.9,1.6,2.3,1.6,3.9c0,1.4-0.5,2.8-1.6,3.8c-1,0.9-2.2,1.5-4,1.5c-1.9,0-3.2-0.8-4-1.5
		c-1-0.9-1.6-2.3-1.6-3.8s0.7-3,1.6-3.9c0.7-0.7,2-1.5,4-1.5C76.4,11.2,77.8,11.7,78.8,12.7z M72.6,14.2c-0.4,0.4-0.9,1.2-0.9,2.3
		c0,0.9,0.3,1.7,0.9,2.3c0.7,0.6,1.4,0.8,2.2,0.8c1,0,1.8-0.4,2.3-0.9c0.4-0.4,0.9-1.1,0.9-2.3c0-1.1-0.4-1.8-0.9-2.3
		s-1.3-0.9-2.3-0.9C74,13.4,73.2,13.7,72.6,14.2z"/>
	<path class="st1" d="M83.1,11.4l2.6,6.5l2.6-6.5h2.5l-4.3,10.2h-1.6l-4.3-10.2C80.6,11.4,83.1,11.4,83.1,11.4z"/>
	<path class="st1" d="M94.4,11.4v10.2H92V11.4H94.4z"/>
	<path class="st1" d="M100,11.4c1.3,0,2.8,0.2,4,1.4c0.9,0.9,1.5,2.1,1.5,3.7s-0.6,2.8-1.4,3.6c-1.4,1.4-3.2,1.5-4,1.5h-3.3V11.4
		H100z M99.1,19.6h0.6c0.5,0,1.6,0,2.3-0.7c0.6-0.5,1-1.3,1-2.5c0-1.1-0.4-1.8-0.8-2.2c-0.8-0.8-1.8-0.9-2.5-0.9h-0.6V19.6z"/>
	<path class="st1" d="M106.9,16.8h3.9v1.9h-3.9V16.8z"/>
	<path class="st1" d="M115.1,13.4h-1.5v-2h3.8v10.2H115L115.1,13.4L115.1,13.4z"/>
	<path class="st1" d="M121.2,21.6l2.7-3.3c-0.4,0.1-0.7,0.2-1,0.2c-1.1,0-2-0.4-2.6-1s-0.9-1.4-0.9-2.5c0-1.5,0.7-2.3,1-2.7
		c1-1,2.4-1.2,3.2-1.2c1.6,0,2.5,0.5,3.1,1c0.5,0.5,1,1.3,1,2.6c0,0.6-0.2,1.4-0.5,2.1c-0.3,0.6-0.7,1.3-1.2,1.9l-2.3,3.1
		L121.2,21.6z M122.4,13.6c-0.2,0.2-0.5,0.6-0.5,1.3c0,0.6,0.2,1.1,0.5,1.3c0.3,0.3,0.8,0.4,1.2,0.4c0.5,0,1-0.2,1.2-0.4
		c0.2-0.2,0.5-0.6,0.5-1.3c0-0.5-0.2-0.9-0.5-1.2c-0.2-0.2-0.6-0.5-1.2-0.5C123.2,13.1,122.7,13.3,122.4,13.6z"/>
	<path class="st1" d="M137.8,16h5.1v0.1c0,1.2-0.4,3.1-1.6,4.3c-1.1,1.2-2.4,1.4-3.6,1.4c-1.2,0-2.5-0.2-3.7-1.4
		c-0.6-0.6-1.5-1.9-1.5-3.9c0-1.7,0.6-3,1.5-3.9c1.3-1.3,2.8-1.5,4-1.5c0.8,0,1.9,0.1,2.9,0.8c0.7,0.5,1.3,1.2,1.7,1.8l-2.1,1.2
		c-0.2-0.4-0.5-0.8-0.9-1.1c-0.5-0.3-1-0.5-1.6-0.5c-0.9,0-1.6,0.3-2.1,0.8c-0.6,0.6-0.9,1.5-0.9,2.4c0,1.2,0.4,1.9,0.9,2.3
		c0.6,0.6,1.3,0.8,2.1,0.8c1,0,1.5-0.4,1.8-0.6c0.1-0.1,0.5-0.5,0.7-1.2H138V16H137.8z"/>
	<path class="st1" d="M146.7,10.5v11.2h-2.2V10.5H146.7z"/>
	<path class="st1" d="M155.1,20.8c-0.6,0.6-1.7,1.1-3,1.1s-2.4-0.5-3-1.1c-0.7-0.7-1-1.7-1-2.5s0.3-1.9,1-2.5c0.6-0.6,1.7-1.1,3-1.1
		s2.4,0.5,3,1.1c0.7,0.7,1,1.7,1,2.5S155.8,20.1,155.1,20.8z M150.9,16.9c-0.3,0.3-0.5,0.7-0.5,1.3c0,0.6,0.2,1,0.5,1.3
		s0.7,0.5,1.3,0.5c0.5,0,0.9-0.2,1.2-0.5s0.5-0.7,0.5-1.3c0-0.6-0.2-1-0.5-1.3s-0.7-0.5-1.2-0.5C151.6,16.4,151.2,16.6,150.9,16.9z"
		/>
	<path class="st1" d="M159.8,10.5v5.1c0.6-0.8,1.4-1,2.1-1c0.9,0,1.8,0.4,2.4,0.9c0.7,0.6,1.1,1.6,1.1,2.7s-0.4,2-1.1,2.7
		c-0.6,0.6-1.3,0.9-2.3,0.9c-1.2,0-1.8-0.6-2.2-1.1v0.8h-2.2v-11H159.8z M160.2,17c-0.3,0.3-0.5,0.7-0.5,1.3c0,0.6,0.2,1,0.5,1.2
		c0.4,0.3,0.8,0.5,1.3,0.5c0.4,0,0.8-0.2,1.2-0.5c0.3-0.3,0.5-0.8,0.5-1.3c0-0.6-0.2-1-0.5-1.3c-0.4-0.3-0.7-0.5-1.2-0.5
		C160.9,16.5,160.5,16.6,160.2,17z"/>
	<path class="st1" d="M172,14.8h2.2v6.8H172v-0.8c-0.6,0.9-1.5,1.1-2,1.1c-1,0-1.8-0.2-2.6-1c-0.7-0.8-1-1.7-1-2.6
		c0-1.1,0.4-2.1,1.1-2.8c0.6-0.6,1.4-0.9,2.4-0.9c0.6,0,1.5,0.1,2.1,1V14.8z M169.2,17c-0.2,0.2-0.5,0.6-0.5,1.2s0.3,1,0.5,1.2
		c0.3,0.3,0.8,0.5,1.3,0.5c0.4,0,0.9-0.2,1.1-0.5c0.3-0.3,0.5-0.7,0.5-1.3c0-0.5-0.2-1-0.5-1.3s-0.8-0.5-1.2-0.5
		C169.9,16.5,169.5,16.7,169.2,17z"/>
	<path class="st1" d="M178.2,10.5v11.2H176V10.5H178.2z"/>
	<path class="st1" d="M66.3,29.2h-3.4v2h3.3v2h-3.3v2.3h3.4v2h-5.8V27.2h5.8V29.2z"/>
	<path class="st1" d="M75.4,37.5h-2.2v-0.8c-0.3,0.5-1,1.1-2.2,1.1c-1,0-1.7-0.3-2.3-0.9c-0.7-0.7-1.1-1.7-1.1-2.7
		c0-1.1,0.4-2.1,1.1-2.7c0.6-0.6,1.4-0.9,2.4-0.9c0.8,0,1.6,0.2,2.1,1v-5.1h2.2V37.5z M70.4,32.7c-0.3,0.3-0.5,0.8-0.5,1.3
		s0.2,1,0.5,1.3s0.8,0.5,1.2,0.5c0.4,0,0.9-0.2,1.3-0.5c0.3-0.2,0.5-0.7,0.5-1.2c0-0.6-0.2-1-0.5-1.3c-0.4-0.4-0.8-0.5-1.2-0.5
		C71.1,32.3,70.7,32.4,70.4,32.7z"/>
	<path class="st1" d="M79.3,30.6v3.8c0,0.3,0,0.8,0.4,1.1c0.2,0.1,0.4,0.3,0.9,0.3c0.4,0,0.7-0.1,0.9-0.3c0.3-0.3,0.4-0.8,0.4-1.1
		v-3.8h2.2v4c0,0.8-0.1,1.5-0.8,2.2c-0.8,0.8-1.9,0.9-2.7,0.9c-0.8,0-2-0.1-2.8-0.9c-0.6-0.6-0.8-1.3-0.8-2.1v-4.1
		C77,30.6,79.3,30.6,79.3,30.6z"/>
	<path class="st1" d="M91,32.8c-0.5-0.4-1.1-0.5-1.4-0.5c-0.7,0-1.1,0.3-1.3,0.5C88,33,87.8,33.5,87.8,34s0.2,0.9,0.5,1.2
		c0.3,0.4,0.8,0.6,1.3,0.6c0.4,0,0.9-0.1,1.4-0.5v2c-0.6,0.3-1.1,0.4-1.7,0.4c-1.1,0-2-0.4-2.7-1c-0.5-0.5-1.1-1.4-1.1-2.6
		c0-1.2,0.5-2.1,1.1-2.7c0.8-0.7,1.7-1,2.6-1c0.6,0,1.2,0.1,1.7,0.4L91,32.8L91,32.8z"/>
	<path class="st1" d="M97.7,30.6h2.2v6.8h-2.2v-0.8c-0.6,0.9-1.5,1.1-2,1.1c-1,0-1.8-0.2-2.6-1c-0.7-0.8-1-1.7-1-2.6
		c0-1.2,0.4-2.1,1.1-2.8c0.6-0.6,1.4-0.9,2.4-0.9c0.6,0,1.5,0.1,2.1,1V30.6z M94.9,32.8c-0.2,0.2-0.5,0.6-0.5,1.2s0.3,1,0.5,1.2
		c0.3,0.3,0.8,0.5,1.3,0.5c0.4,0,0.9-0.2,1.2-0.5c0.3-0.3,0.5-0.7,0.5-1.3c0-0.5-0.2-1-0.5-1.3s-0.8-0.5-1.2-0.5
		C95.7,32.3,95.2,32.5,94.9,32.8z"/>
	<path class="st1" d="M103.9,32.4v5.1h-2.2v-5.1h-0.8v-1.8h0.8v-2.2h2.2v2.2h1.4v1.8H103.9z"/>
	<path class="st1" d="M107.5,26.4c0.7,0,1.3,0.6,1.3,1.3c0,0.7-0.6,1.3-1.3,1.3s-1.3-0.6-1.3-1.3S106.8,26.4,107.5,26.4z
		 M108.6,30.6v6.8h-2.2v-6.8C106.4,30.6,108.6,30.6,108.6,30.6z"/>
	<path class="st1" d="M117.1,36.6c-0.6,0.6-1.7,1.1-3,1.1s-2.4-0.5-3-1.1c-0.7-0.7-1-1.7-1-2.5s0.3-1.9,1-2.5c0.6-0.6,1.7-1.1,3-1.1
		s2.4,0.5,3,1.1c0.7,0.7,1,1.7,1,2.5S117.8,35.9,117.1,36.6z M112.9,32.7c-0.3,0.3-0.5,0.7-0.5,1.3s0.2,1,0.5,1.3s0.7,0.5,1.3,0.5
		c0.5,0,0.9-0.2,1.2-0.5c0.3-0.3,0.5-0.7,0.5-1.3s-0.2-1-0.5-1.3s-0.7-0.5-1.2-0.5S113.2,32.4,112.9,32.7z"/>
	<path class="st1" d="M119.5,30.6h2.2v0.8c0.7-0.9,1.5-1,2.1-1s1.4,0.1,2,0.7s0.7,1.5,0.7,2v4.3h-2.2v-3.5c0-0.4,0-1-0.4-1.4
		c-0.2-0.2-0.4-0.3-0.8-0.3c-0.5,0-0.8,0.2-0.9,0.4c-0.4,0.4-0.4,0.9-0.4,1.3v3.5h-2.2L119.5,30.6L119.5,30.6z"/>
	<path class="st1" d="M135.7,27.2c1.3,0,2.1,0.4,2.6,0.9c0.4,0.4,0.9,1.2,0.9,2.3c0,0.6-0.1,1.4-0.8,2.1c-0.4,0.3-0.9,0.6-1.4,0.8
		l3.1,4.2h-2.9l-2.8-4v4H132V27.2H135.7z M134.4,31.9h0.5c0.4,0,1,0,1.4-0.4c0.2-0.2,0.4-0.5,0.4-1c0-0.6-0.3-0.9-0.5-1
		c-0.4-0.3-1-0.3-1.3-0.3h-0.6v2.7H134.4z"/>
	<path class="st1" d="M148.1,34.4H143c0,0.4,0.1,0.9,0.4,1.2c0.3,0.4,0.8,0.4,1.1,0.4s0.7-0.1,0.9-0.2c0,0,0.3-0.2,0.5-0.6l2.1,0.2
		c-0.3,1-0.9,1.5-1.3,1.7c-0.7,0.4-1.4,0.5-2.2,0.5c-1,0-1.9-0.2-2.7-1c-0.6-0.6-1-1.5-1-2.6c0-1,0.4-2,1-2.7c0.8-0.8,1.9-1,2.6-1
		s1.9,0.1,2.7,1c0.8,0.9,1,1.9,1,2.8V34.4z M146.1,33.1c0-0.1-0.1-0.5-0.4-0.8c-0.2-0.2-0.6-0.4-1-0.4c-0.6,0-0.9,0.2-1.1,0.4
		c-0.2,0.2-0.3,0.4-0.4,0.7L146.1,33.1L146.1,33.1z"/>
	<path class="st1" d="M154.6,32.8c-0.5-0.4-1.1-0.5-1.4-0.5c-0.7,0-1.1,0.3-1.3,0.5c-0.3,0.3-0.5,0.7-0.5,1.3c0,0.5,0.2,0.9,0.5,1.2
		c0.3,0.4,0.8,0.6,1.3,0.6c0.4,0,0.9-0.1,1.4-0.5v2c-0.6,0.3-1.1,0.4-1.7,0.4c-1.1,0-2-0.4-2.7-1c-0.5-0.5-1.1-1.4-1.1-2.6
		c0-1.2,0.5-2.1,1.1-2.7c0.8-0.7,1.7-1,2.6-1c0.6,0,1.2,0.1,1.7,0.4L154.6,32.8L154.6,32.8z"/>
	<path class="st1" d="M162.8,36.6c-0.6,0.6-1.7,1.1-3,1.1s-2.4-0.5-3-1.1c-0.7-0.7-1-1.7-1-2.5s0.3-1.9,1-2.5c0.6-0.6,1.7-1.1,3-1.1
		s2.4,0.5,3,1.1c0.7,0.7,1,1.7,1,2.5S163.5,35.9,162.8,36.6z M158.5,32.7c-0.3,0.3-0.5,0.7-0.5,1.3s0.2,1,0.5,1.3s0.7,0.5,1.3,0.5
		c0.5,0,0.9-0.2,1.2-0.5s0.5-0.7,0.5-1.3s-0.2-1-0.5-1.3s-0.7-0.5-1.2-0.5C159.3,32.3,158.9,32.4,158.5,32.7z"/>
	<path class="st1" d="M166.6,30.6l1.7,3.7l1.7-3.7h2.4l-3.5,6.8h-1.4l-3.5-6.8C164,30.6,166.6,30.6,166.6,30.6z"/>
	<path class="st1" d="M180.2,34.4h-5.1c0,0.4,0.1,0.9,0.4,1.2c0.3,0.4,0.8,0.4,1.1,0.4s0.7-0.1,0.9-0.2c0,0,0.3-0.2,0.5-0.6l2.1,0.2
		c-0.3,1-0.9,1.5-1.3,1.7c-0.7,0.4-1.4,0.5-2.2,0.5c-1,0-1.9-0.2-2.7-1c-0.6-0.6-1-1.5-1-2.6c0-1,0.4-2,1-2.7c0.8-0.8,1.9-1,2.6-1
		s1.9,0.1,2.7,1c0.8,0.9,1,1.9,1,2.8V34.4z M178.1,33.1c0-0.1-0.1-0.5-0.4-0.8c-0.2-0.2-0.6-0.4-1-0.4c-0.6,0-0.9,0.2-1.1,0.4
		c-0.2,0.2-0.3,0.4-0.4,0.7L178.1,33.1L178.1,33.1z"/>
	<path class="st1" d="M181.5,30.6h2.2v1.1c0.2-0.4,0.5-0.7,0.9-1c0.4-0.2,0.8-0.3,1.2-0.3c0.3,0,0.5,0,0.7,0.1l-0.1,2.1
		c-0.3-0.2-0.6-0.2-1-0.2c-0.5,0-0.8,0.2-1.1,0.5c-0.5,0.5-0.5,1.3-0.5,1.8v2.8h-2.2L181.5,30.6L181.5,30.6z"/>
	<path class="st1" d="M190.3,36.6l-3.3-6h2.5l1.9,3.7l1.9-3.7h2.5L190.4,41h-2.5L190.3,36.6z"/>
	<path class="st1" d="M204.3,29.2v8.2h-2.4v-8.2h-2.2v-2h6.8v2H204.3z"/>
	<path class="st1" d="M206.9,30.6h2.2v1.1c0.2-0.4,0.5-0.7,0.9-1c0.4-0.2,0.8-0.3,1.2-0.3c0.3,0,0.5,0,0.7,0.1l-0.1,2.1
		c-0.3-0.2-0.6-0.2-1-0.2c-0.5,0-0.8,0.2-1.1,0.5c-0.5,0.5-0.5,1.3-0.5,1.8v2.8H207L206.9,30.6L206.9,30.6z"/>
	<path class="st1" d="M217.8,30.6h2.2v6.8h-2.2v-0.8c-0.6,0.9-1.5,1.1-2,1.1c-1,0-1.8-0.2-2.6-1c-0.7-0.8-1-1.7-1-2.6
		c0-1.2,0.4-2.1,1.1-2.8c0.6-0.6,1.4-0.9,2.4-0.9c0.6,0,1.5,0.1,2.1,1V30.6z M215,32.8c-0.2,0.2-0.5,0.6-0.5,1.2s0.3,1,0.5,1.2
		c0.3,0.3,0.8,0.5,1.3,0.5c0.4,0,0.9-0.2,1.2-0.5s0.5-0.7,0.5-1.3c0-0.5-0.2-1-0.5-1.3s-0.8-0.5-1.2-0.5
		C215.7,32.3,215.2,32.5,215,32.8z"/>
	<path class="st1" d="M226.8,32.8c-0.5-0.4-1.1-0.5-1.4-0.5c-0.7,0-1.1,0.3-1.3,0.5c-0.3,0.3-0.5,0.7-0.5,1.3c0,0.5,0.2,0.9,0.5,1.2
		c0.3,0.4,0.8,0.6,1.3,0.6c0.4,0,0.9-0.1,1.4-0.5v2c-0.6,0.3-1.1,0.4-1.7,0.4c-1.1,0-2-0.4-2.7-1c-0.5-0.5-1.1-1.4-1.1-2.6
		c0-1.2,0.5-2.1,1.1-2.7c0.8-0.7,1.7-1,2.6-1c0.6,0,1.2,0.1,1.7,0.4L226.8,32.8L226.8,32.8z"/>
	<path class="st1" d="M230.6,26.3v6.9l2.5-2.5h2.9l-3.3,3.1l3.5,3.7h-3l-2.6-2.9v2.9h-2.2V26.3H230.6z"/>
	<path class="st1" d="M243.7,34.4h-5.1c0,0.4,0.1,0.9,0.4,1.2c0.3,0.4,0.8,0.4,1.1,0.4s0.7-0.1,0.9-0.2c0,0,0.3-0.2,0.5-0.6l2.1,0.2
		c-0.3,1-0.9,1.5-1.3,1.7c-0.7,0.4-1.4,0.5-2.2,0.5c-1,0-1.9-0.2-2.7-1c-0.6-0.6-1-1.5-1-2.6c0-1,0.4-2,1-2.7c0.8-0.8,1.9-1,2.6-1
		c0.8,0,1.9,0.1,2.7,1c0.8,0.9,1,1.9,1,2.8V34.4z M241.6,33.1c0-0.1-0.1-0.5-0.4-0.8c-0.2-0.2-0.6-0.4-1-0.4c-0.6,0-0.9,0.2-1.1,0.4
		c-0.2,0.2-0.3,0.4-0.4,0.7L241.6,33.1L241.6,33.1z"/>
	<path class="st1" d="M245,30.6h2.2v1.1c0.2-0.4,0.5-0.7,0.9-1c0.4-0.2,0.8-0.3,1.2-0.3c0.3,0,0.5,0,0.7,0.1l-0.1,2.1
		c-0.3-0.2-0.6-0.2-1-0.2c-0.5,0-0.8,0.2-1.1,0.5c-0.5,0.5-0.5,1.3-0.5,1.8v2.8H245V30.6z"/>
</g>
<g>
	<path class="st1" d="M3.2,16.2h14c1.8,0,3.2-1.5,3.2-3.2V3.2C20.5,1.5,19,0,17.2,0h-14C1.5,0,0,1.5,0,3.2V13
		C0,14.7,1.5,16.2,3.2,16.2z M2.4,3.2c0-0.5,0.4-0.8,0.8-0.8h14c0.5,0,0.8,0.4,0.8,0.8V13c0,0.5-0.4,0.8-0.8,0.8h-14
		c-0.5,0-0.8-0.4-0.8-0.8C2.4,13,2.4,3.2,2.4,3.2z"/>
	<path class="st1" d="M26.1,24.5h14c1.8,0,3.2-1.5,3.2-3.2V3.2c0-1.8-1.5-3.2-3.2-3.2h-14c-1.8,0-3.2,1.5-3.2,3.2v18.1
		C22.9,23.1,24.4,24.5,26.1,24.5z M25.3,3.2c0-0.5,0.4-0.8,0.8-0.8h14c0.5,0,0.8,0.4,0.8,0.8v18.1c0,0.5-0.4,0.8-0.8,0.8h-14
		c-0.5,0-0.8-0.4-0.8-0.8V3.2z"/>
	<path class="st2" d="M38.3,43.4L37.8,41H26.1c-0.5,0-0.8-0.4-0.8-0.8v-9.7c0-0.5,0.4-0.8,0.8-0.8h14c0.5,0,0.8,0.4,0.8,0.8v5.9
		l2.4,1.4v-7.3c0-1.8-1.5-3.2-3.2-3.2h-14c-1.8,0-3.2,1.5-3.2,3.2v9.7c0,1.8,1.5,3.2,3.2,3.2C26.1,43.4,38.3,43.4,38.3,43.4z"/>
	<path class="st1" d="M3.2,43.4h14c1.8,0,3.2-1.5,3.2-3.2V22.1c0-1.8-1.5-3.2-3.2-3.2h-14c-1.8,0-3.2,1.5-3.2,3.2v18.1
		C0,41.9,1.5,43.4,3.2,43.4z M2.4,22.1c0-0.5,0.4-0.8,0.8-0.8h14c0.5,0,0.8,0.4,0.8,0.8v18.1c0,0.5-0.4,0.8-0.8,0.8h-14
		c-0.5,0-0.8-0.4-0.8-0.8C2.4,40.2,2.4,22.1,2.4,22.1z"/>
	<path class="st1" d="M41,36.3l-3.1-1.8c-0.5-0.3-1.2,0.2-1.1,0.8l1.1,5.8l0.5,2.4l1.1,6c0.1,0.7,1,0.8,1.3,0.2l3.1-5.5l6.2-1
		c0.7-0.1,0.9-1,0.3-1.4l-6.9-4L41,36.3z"/>
</g>
</svg>
