<?xml version="1.0" encoding="utf-8"?>
<!-- Generator: Adobe Illustrator 25.2.0, SVG Export Plug-In . SVG Version: 6.00 Build 0)  -->
<svg version="1.1" id="Layer_1" xmlns="http://www.w3.org/2000/svg" xmlns:xlink="http://www.w3.org/1999/xlink" x="0px" y="0px"
	 viewBox="0 0 4120.7 714.8" style="enable-background:new 0 0 4120.7 714.8;" xml:space="preserve">
<style type="text/css">
	.st0{fill-rule:evenodd;clip-rule:evenodd;fill:#002D72;}
	.st1{fill:#002D72;}
</style>
<g>
	<g>
		<path class="st0" d="M231.3,260.1c-75.3,0.7-150.5,8.8-223.7,24.4c32.3,204.7,160.2,304.3,223.7,339.4V260.1z M135.5,301.3
			c-45,0-81.7,36.7-81.7,81.7c0,45.1,36.6,81.7,81.7,81.7s81.7-36.7,81.7-81.7S180.6,301.3,135.5,301.3 M139.1,379.5h31.7
			c-0.2-6.1-1.1-12.1-2.5-18c-9.6,1.7-19.4,2.7-29.3,2.8v15.2H139.1z M166.4,354.7c-2-6.3-4.6-12.3-7.9-18.1
			c-6.4,1-12.9,1.6-19.4,1.7v19C148.3,357.1,157.4,356.2,166.4,354.7 M154.4,330.1c-4.3-6.4-9.5-12.5-15.3-18v19.1
			C144.2,331.1,149.3,330.8,154.4,330.1 M162,328.8c6.4-1.2,12.7-2.9,18.9-5c-9.9-7.6-21.7-12.8-34.7-14.6
			C152.3,315.2,157.6,321.8,162,328.8 M116.6,330.1c5.1,0.7,10.3,1.1,15.4,1.2V312C126.1,317.5,120.9,323.6,116.6,330.1
			 M124.7,309.3c-12.9,1.9-24.7,7-34.5,14.6c6.1,2.1,12.4,3.8,18.8,4.9C113.4,321.8,118.6,315.3,124.7,309.3 M112.5,336.6
			c-3.3,5.8-5.9,11.8-7.9,18.1c9,1.6,18.2,2.5,27.4,2.6v-19C125.5,338.2,118.9,337.6,112.5,336.6 M102.6,361.5
			c-1.4,5.9-2.2,12-2.5,18H132v-15.2C122.1,364.2,112.3,363.2,102.6,361.5 M95.8,360.1c-9.5-2.1-18.8-4.9-27.9-8.5
			c-4,8.6-6.4,18-6.8,27.9h32.1C93.4,373,94.2,366.5,95.8,360.1 M61.1,386.6c0.4,9.9,2.8,19.3,6.8,27.9c9.1-3.6,18.4-6.4,27.9-8.4
			c-1.5-6.3-2.4-12.9-2.6-19.4H61.1V386.6z M102.7,404.6c9.6-1.7,19.4-2.7,29.4-2.9v-15.2h-31.8
			C100.4,392.7,101.2,398.7,102.7,404.6 M104.6,411.4c2,6.3,4.6,12.3,7.9,18.1c6.4-1,13-1.6,19.5-1.7v-19
			C122.8,409,113.6,409.9,104.6,411.4 M116.6,436c4.4,6.5,9.5,12.5,15.4,18.1v-19.3C126.9,435,121.7,435.4,116.6,436 M108.9,437.3
			c-6.4,1.2-12.6,2.9-18.8,5c9.8,7.6,21.7,12.7,34.5,14.6C118.6,450.8,113.4,444.3,108.9,437.3 M154.4,436c-5.1-0.7-10.2-1-15.3-1.2
			V454C144.9,448.5,150.1,442.5,154.4,436 M146.2,456.9c12.9-1.9,24.7-7.1,34.7-14.6c-6.2-2.1-12.5-3.8-18.9-5
			C157.6,444.3,152.3,450.8,146.2,456.9 M158.5,429.5c3.3-5.8,5.9-11.9,7.9-18.1c-9-1.6-18.1-2.4-27.3-2.6v19
			C145.5,427.9,152,428.5,158.5,429.5 M168.3,404.6c1.4-5.9,2.2-11.9,2.5-18.1h-31.7v15.2C148.9,401.9,158.7,402.9,168.3,404.6
			 M175.2,406c9.5,2.1,18.9,4.9,28,8.5c4-8.5,6.4-17.9,6.8-27.9h-32.2C177.6,393.1,176.7,399.6,175.2,406 M210,379.5
			c-0.4-9.9-2.8-19.3-6.8-27.9c-9.1,3.6-18.5,6.4-28,8.5c1.5,6.3,2.4,12.8,2.6,19.4H210z M187.1,329.1c-7,2.6-14.1,4.6-21.3,6.2
			c3.1,5.8,5.7,11.8,7.6,18c9-1.9,17.9-4.6,26.6-8C196.4,339.4,192.1,333.9,187.1,329.1 M71.1,345.4c8.7,3.4,17.5,6,26.5,7.9
			c1.9-6.2,4.5-12.3,7.6-18.1c-7.2-1.5-14.3-3.5-21.2-6.1C79,333.9,74.7,339.4,71.1,345.4 M84,437c6.9-2.6,14-4.6,21.2-6.1
			c-3.1-5.8-5.7-11.9-7.6-18.1c-9,1.9-17.8,4.6-26.5,7.9C74.7,426.7,79,432.2,84,437 M199.9,420.7c-8.7-3.3-17.6-6-26.6-8
			c-1.9,6.3-4.5,12.3-7.6,18.1c7.2,1.5,14.4,3.5,21.3,6.1C192.1,432.2,196.4,426.7,199.9,420.7"/>
		<path class="st1" d="M0,185.2v-42c0-5.7,4-10.5,9.2-11.8l0.3-0.1c74.9-16,152.7-24.5,232.4-24.5c79.6,0,157.2,8.5,232.1,24.5
			l0.2,0.1c5.5,1.1,9.6,6,9.6,11.9v42c0,27.6-1.7,53.6-4.7,78.3c-155.3-32.8-318.8-32.8-474.4,0.1C1.7,238.9,0,212.9,0,185.2
			 M241.8,142.3c-36.5-13.4-88.8-16.4-120.6-9.7l-13.9,10.8l-3.7,0.6c-1.3,0.2-2.2,1.1-2.7,1.8l-38.6,85.4c-1.2,2.4,0.7,4.4,2.9,3.9
			c58.8-11.2,121.2-14.6,176.5-14.6h0.1c55.3,0,117.7,3.4,176.5,14.6c2.2,0.4,4.2-1.6,2.9-3.9l-38.7-85.4c-0.4-0.8-1.4-1.7-2.6-1.8
			l-3.7-0.6l-13.8-10.8C330.6,125.9,278.3,128.9,241.8,142.3L241.8,142.3z"/>
		<path class="st1" d="M238.9,208.8c-47.6-15.6-102.2-18-141-10.6l19.2-54.6l-12.7,9.7l-26.5,69c35.3-5.7,115.1-12.2,154.6-11.6
			C234.1,209.9,236.1,208.8,238.9,208.8"/>
		<path class="st1" d="M244.2,208.8c47.6-15.6,102.3-18,141.1-10.6L366,143.6l12.8,9.7l26.5,69c-35.3-5.7-115.1-12.2-154.7-11.6
			C249.1,209.9,247.1,208.8,244.2,208.8"/>
		<path class="st1" d="M252.4,414.2v209.7c12.8-7,28.1-16.7,44.8-29.3V443.9L252.4,414.2z"/>
		<path class="st1" d="M297.2,261.5c-14.9-0.7-29.8-1.2-44.8-1.4v49.8l44.8,29.8V261.5z"/>
		<path class="st1" d="M386.7,399.3V269.4c-14.9-1.9-29.8-3.6-44.8-4.9v105L386.7,399.3z"/>
		<path class="st1" d="M342,473.8v81.9c15-14.9,30.2-32.3,44.8-52v-0.1L342,473.8z"/>
		<path class="st1" d="M386.7,503.7C386.8,503.7,386.8,503.7,386.7,503.7v-0.1V503.7z"/>
		<path class="st1" d="M431.6,429.2c19.8-41,35.7-88.9,44.6-144.7c-14.8-3.1-29.7-5.9-44.7-8.4v153.1H431.6z"/>
		<polygon class="st1" points="297.2,339.7 297.2,444 342,473.8 342,369.5 		"/>
		<path class="st1" d="M431.5,429.1l-44.8-29.8v104.3l0.1,0.1c16-21.7,31.2-46.4,44.7-74.2L431.5,429.1L431.5,429.1z"/>
		<path class="st1" d="M431.5,429.4c0-0.1,0.1-0.2,0.1-0.2l-0.1-0.1V429.4z"/>
	</g>
	<path class="st1" d="M962.2,525.9c0-9.3-0.3-26.5-2.8-31c-1.1-1.8-3.8-2.9-7.5-3.2l-3.7-0.3c-0.9-1.1-0.6-3,0.3-3.6
		c5.7,0.3,11.2,0.4,17.1,0.4c6.3,0,10.3-0.1,15.7-0.4c1.2,0.8,1,2.7,0.3,3.6l-3.6,0.3c-3.7,0.3-6.6,1.6-7.5,3.6
		c-2.1,4.9-2.1,22.1-2.1,30.5v16.9c0,13-2.1,26.8-10.5,35.7c-6.4,7-17.5,10.9-28.6,10.9c-10.3,0-20.6-2-28-8.2
		c-7.9-6.6-11.7-17.5-11.7-35.3v-35.3c0-15.6-0.3-18.1-9-18.9l-3.7-0.3c-0.9-0.6-0.6-3.2,0.3-3.6c7.5,0.3,12.6,0.4,18.5,0.4
		c6.1,0,11.1-0.1,18.4-0.4c0.9,0.4,1.2,3,0.3,3.6l-3.6,0.3c-8.7,0.8-9,3.3-9,18.9V543c0,24.1,7.5,39.9,30.4,39.9
		c21.7,0,29.9-17,29.9-39.8L962.2,525.9L962.2,525.9z"/>
	<path class="st1" d="M1157.7,561.7c0,4.5,0,22.3,0.4,26.2c-0.3,0.9-1.2,1.7-2.8,1.7c-1.8-2.6-6.1-7.8-19.1-22.6l-34.7-39.5
		c-4-4.6-14.2-16.9-17.4-20.2h-0.3c-0.6,1.8-0.8,5.3-0.8,9.7v32.6c0,7,0.2,26.5,2.7,31c0.9,1.7,3.9,2.5,7.6,2.8l4.6,0.5
		c0.9,1.2,0.7,3-0.3,3.7c-6.7-0.3-12-0.4-17.5-0.4c-6.3,0-10.3,0.2-15.6,0.4c-1-0.8-1.2-2.8-0.3-3.7l4-0.5c3.5-0.4,5.9-1.3,6.6-3
		c2.1-5.3,2-23.6,2-30.8v-43.2c0-4.2-0.2-7.3-3.3-10.8c-2.1-2.1-5.7-3.1-9.3-3.6l-2.5-0.3c-0.9-0.9-0.9-3.1,0.3-3.8
		c6.3,0.5,14.2,0.5,16.9,0.5c2.4,0,5-0.1,6.9-0.5c3,7.6,20.7,27.4,25.6,32.9l14.5,16.3c10.3,11.5,17.7,19.9,24.7,27.1h0.3
		c0.6-0.7,0.6-3.1,0.6-6.3v-32c0-7-0.2-26.5-3-31c-0.9-1.4-3.3-2.3-9.3-3l-2.5-0.3c-1-0.9-0.9-3.3,0.3-3.8c6.9,0.3,12,0.5,17.6,0.5
		c6.4,0,10.3-0.1,15.4-0.5c1.2,0.8,1.2,2.9,0.3,3.8l-2.1,0.3c-4.8,0.7-7.8,1.9-8.4,3.1c-2.5,5.4-2.3,23.9-2.3,30.8v35.9H1157.7z"/>
	<path class="st1" d="M1269.2,511.1c0-15.9-0.3-18.4-9.1-19.1l-3.7-0.3c-0.9-0.6-0.6-3.3,0.3-3.8c7.5,0.3,12.6,0.4,18.9,0.4
		c6,0,11.1-0.1,18.6-0.4c0.9,0.4,1.2,3.1,0.3,3.8l-3.7,0.3c-8.8,0.7-9.1,3.3-9.1,19.1v53.3c0,15.8,0.3,17.9,9.1,19l3.7,0.5
		c0.9,0.6,0.6,3.3-0.3,3.7c-7.5-0.3-12.6-0.4-18.6-0.4c-6.3,0-11.4,0.2-18.9,0.4c-0.9-0.4-1.2-2.8-0.3-3.7l3.7-0.5
		c8.8-1,9.1-3.1,9.1-19V511.1z"/>
	<path class="st1" d="M1390.3,504.3c-3.4-8.4-5.7-11.6-12.1-12.3l-2.7-0.3c-1-0.9-0.9-3,0.3-3.8c4.3,0.3,9.1,0.5,15.6,0.5
		c6.6,0,11.8-0.1,18.1-0.5c1.1,0.6,1.3,2.8,0.3,3.8l-2.2,0.3c-5.7,0.7-6.9,1.6-7,2.8c0.3,1.5,2.8,9.6,7.5,21
		c6.9,17.4,13.8,34.5,21.3,51.6c4.6-9.9,10.9-25.3,14.4-33.2c4.3-10.2,11.4-27.1,13.9-33.5c1.2-3.1,1.4-4.8,1.4-5.8
		s-1.5-2.2-6.7-2.8l-2.7-0.3c-1-0.9-0.7-3.1,0.3-3.8c4.2,0.3,9.9,0.5,15.6,0.5c5,0,9.6-0.1,14.5-0.5c1.1,0.6,1.1,3,0.3,3.8l-4.5,0.3
		c-3.6,0.3-5.8,2.1-7.8,5.2c-4.2,7-10,19.2-16.8,34.4L1443,550c-6,13.8-13,31.1-15.6,39.1c-0.4,0.3-1,0.4-1.6,0.4
		c-0.8,0-1.5-0.1-2.3-0.4c-1.7-6.3-4.3-13.6-6.9-19.9L1390.3,504.3z"/>
	<path class="st1" d="M1570.4,510.8c0-15.6-0.3-17.8-9.1-18.9l-2.4-0.3c-0.9-0.6-0.6-3.3,0.3-3.8c6.4,0.3,11.5,0.5,17.6,0.5h28.1
		c9.6,0,18.4,0,20.2-0.5c0.9,2.6,1.8,13.3,2.4,19.9c-0.6,0.9-3,1.2-3.7,0.3c-2.2-7-3.6-12.3-11.4-14.2c-3.1-0.7-7.9-0.9-14.5-0.9
		h-10.8c-4.5,0-4.5,0.3-4.5,6v29.9c0,4.2,0.4,4.2,4.9,4.2h8.7c6.3,0,10.9-0.3,12.7-0.9c1.8-0.6,2.9-1.5,3.6-5.2l1.2-6.1
		c0.7-0.9,3.3-0.9,3.9,0.1c0,3.6-0.6,9.5-0.6,15.1c0,5.4,0.6,11.1,0.6,14.3c-0.6,1.1-3.1,1.1-3.9,0.2l-1.4-5.8
		c-0.6-2.7-1.6-4.9-4.6-5.7c-2.1-0.6-5.7-0.7-11.5-0.7h-8.7c-4.5,0-4.9,0.1-4.9,4.1v21.1c0,7.9,0.4,13,2.8,15.5
		c1.8,1.8,5,3.4,18.1,3.4c11.5,0,15.9-0.6,19.2-2.3c2.7-1.5,6.7-6.7,10.6-14.5c1.1-0.7,3.2-0.3,3.7,1.1c-1,5.2-4.8,16.7-6.7,20.8
		c-13.5-0.3-26.8-0.4-40.1-0.4h-13.5c-6.4,0-11.5,0.2-20.3,0.4c-0.9-0.4-1.2-2.8-0.3-3.7l4.9-0.5c8.5-0.7,9.3-3,9.3-18.7v-53.8
		H1570.4z"/>
	<path class="st1" d="M1732.6,511c0-14.2-0.4-16.8-6.6-17.5l-4.8-0.6c-1-0.7-1-3.2,0.2-3.7c8.4-0.8,18.7-1.2,33.3-1.2
		c9.3,0,18.1,0.8,25,4.5c7.2,3.7,12.4,10.5,12.4,21c0,14.2-11.2,22-18.7,25c-0.7,0.9,0,2.4,0.7,3.6c12,19.3,19.9,31.3,30.1,39.8
		c2.5,2.2,6.3,3.9,10.3,4.2c0.8,0.3,0.9,1.5,0.1,2.1c-1.3,0.4-3.7,0.7-6.6,0.7c-12.7,0-20.4-3.7-31-18.8c-3.9-5.5-10-15.9-14.7-22.6
		c-2.2-3.3-4.7-4.8-10.6-4.8c-6.8,0-7,0.1-7,3.3v18.8c0,15.7,0.3,17.5,9,18.7l3.1,0.5c0.9,0.7,0.6,3.3-0.3,3.7
		c-6.7-0.3-11.8-0.4-17.8-0.4c-6.3,0-11.7,0.2-18.7,0.4c-0.9-0.4-1.2-2.7-0.3-3.7l3.7-0.5c8.7-1,9-3,9-18.7V511H1732.6z
		 M1744.9,532.4c0,2.7,0,4.3,0.4,5c0.5,0.4,2.7,0.7,10.3,0.7c5.4,0,11.1-0.6,15.4-3.9c4-3.1,7.5-8.4,7.5-18.5
		c0-11.8-7.3-23.1-23.9-23.1c-9.3,0-9.7,0.6-9.7,4.8L1744.9,532.4L1744.9,532.4z"/>
	<path class="st1" d="M1913.4,589.5c-12.6,0-20.5-3.9-23.4-5.5c-1.8-3.3-3.7-13.9-4-20.9c0.8-1.1,3-1.4,3.6-0.4
		c2.2,7.6,8.4,22.3,25.7,22.3c12.6,0,18.7-8.2,18.7-17.2c0-6.6-1.4-13.9-12.3-20.9l-14.2-9.3c-7.5-5-16.2-13.5-16.2-25.7
		c0-14.2,11.1-25.8,30.5-25.8c4.6,0,10,0.9,13.9,1.9c1.9,0.6,4,0.9,5.2,0.9c1.3,3.6,2.7,12,2.7,18.3c-0.6,0.9-3,1.3-3.7,0.4
		c-2-7.2-6-16.9-20.4-16.9c-14.6,0-17.8,9.7-17.8,16.6c0,8.7,7.2,15,12.7,18.4l12,7.5c9.4,5.8,18.7,14.5,18.7,28.7
		C1945.3,578.3,1932.9,589.5,1913.4,589.5"/>
	<path class="st1" d="M2047,511.1c0-15.9-0.3-18.4-9.1-19.1l-3.7-0.3c-0.9-0.6-0.6-3.3,0.3-3.8c7.5,0.3,12.6,0.4,18.8,0.4
		c6,0,11.1-0.1,18.6-0.4c0.9,0.4,1.2,3.1,0.3,3.8l-3.8,0.3c-8.8,0.7-9.1,3.3-9.1,19.1v53.3c0,15.8,0.3,17.9,9.1,19l3.8,0.5
		c0.9,0.6,0.6,3.3-0.3,3.7c-7.5-0.3-12.6-0.4-18.6-0.4c-6.3,0-11.3,0.2-18.8,0.4c-0.9-0.4-1.2-2.8-0.3-3.7l3.7-0.5
		c8.8-1,9.1-3.1,9.1-19L2047,511.1L2047,511.1z"/>
	<path class="st1" d="M2213.1,564.7c0,15.7,0.3,17.9,8.9,18.7l4.8,0.5c0.9,0.6,0.6,3.3-0.3,3.7c-8.5-0.3-13.6-0.5-19.6-0.5
		s-11.2,0.1-20.8,0.5c-0.9-0.5-1.2-3,0-3.7l5.4-0.5c8.5-0.7,9.3-3,9.3-18.7v-66.9c0-4.6,0-4.8-4.5-4.8h-8.2
		c-6.4,0-14.6,0.3-18.4,3.7c-3.6,3.3-5.1,6.6-6.7,10.4c-1.2,0.9-3.3,0.1-3.9-1.1c2.4-6.7,4.7-16.3,5.7-22.3c0.5-0.3,2.4-0.4,2.8,0
		c0.9,4.8,5.9,4.6,12.7,4.6h60.6c8.1,0,9.4-0.3,11.6-4.2c0.8-0.3,2.4-0.1,2.7,0.4c-1.7,6.1-2.7,18.3-2.2,22.8
		c-0.6,1.2-3.1,1.2-3.9,0.3c-0.4-3.7-1.5-9.3-3.7-10.9c-3.5-2.5-9.1-3.7-17.4-3.7h-10.6c-4.5,0-4.3,0.1-4.3,5.1L2213.1,564.7
		L2213.1,564.7z"/>
	<path class="st1" d="M2383.6,564.4c0,16,0.9,18.4,9,19l5.7,0.5c0.9,0.9,0.6,3.3-0.3,3.7c-9.3-0.3-14.4-0.4-20.4-0.4
		c-6.3,0-11.7,0.2-19.6,0.4c-0.9-0.4-1.2-2.8-0.3-3.7l4.7-0.5c8.7-0.9,8.9-3,8.9-19v-7.6c0-8.2-0.4-10.2-4.8-18.5l-17.6-34.4
		c-5.1-9.9-7.3-10.6-11.8-11.4l-4.2-0.7c-0.9-1.1-0.7-3.1,0.3-3.8c4.8,0.3,10.2,0.5,17.4,0.5c6.9,0,12.2-0.2,16-0.5
		c1.3,0.5,1.3,2.8,0.5,3.8l-1.9,0.3c-5.3,0.7-6.3,1.5-6.3,2.7c0,1.5,3.9,10,4.6,11.5c5.5,11,11.1,22.9,16.9,33.2
		c4.6-8,9.6-16.6,14.1-25.3c4.2-7.8,9.7-18,9.7-19.8c0-0.9-2.7-1.9-6.3-2.4l-2.7-0.3c-1-1.1-0.9-3.1,0.3-3.8
		c5.4,0.3,9.7,0.5,14.4,0.5c4.6,0,8.8-0.2,13.9-0.5c1.2,0.8,1.4,2.8,0.3,3.8l-4.2,0.7c-7.8,1.3-12.3,10.8-19.8,23.7l-9.4,16.3
		c-6.6,11.4-7.1,12.7-7.1,24.2L2383.6,564.4L2383.6,564.4z"/>
	<g>
		<path class="st1" d="M626.1,219.8c0-38.1-3.4-42.3-23.7-44l-8.6-0.7c-2.1-1.4-1.4-7.5,0.7-8.6c19.9,0.7,31.6,1,46,1
			c13.7,0,25.4-0.4,39.2-1c2.1,1,2.8,7.2,0.7,8.6l-5.1,0.7c-20.3,2.8-21,7.6-21,44v127.4c0,27.1-1.4,50.8-7.9,66.6
			c-11.4,27.5-35.7,49.5-67.7,49.5c-4.1,0-14.8-0.3-14.8-7.2c0-5.8,5.1-15.8,12.3-15.8c4.1,0,8.3,0.7,12.7,2
			c4.8,1.4,9.6,2.4,14.4,2.4c7.2,0,11.3-4.1,13.7-8.9c7.9-16.1,8.9-67.7,8.9-86.2V219.8H626.1z"/>
	</g>
	<path class="st1" d="M679.6,300.7c0-58,43.5-102.3,103.2-102.3c66.9,0,100.6,48.4,100.6,99.4c0,58.5-44.6,101.1-100.6,101.1
		C718.5,399,679.6,352.9,679.6,300.7 M854.4,306.8c0-47.8-21.2-99.4-76.5-99.4c-30.1,0-69.2,20.6-69.2,84
		c0,42.9,20.9,98.5,77.9,98.5C821.4,390,854.4,363.9,854.4,306.8"/>
	<path class="st1" d="M949.2,300.7c-13.9,0-14.5,0.6-14.5,9.3v40.9c0,30.4,1.5,34.5,17.7,36.2l8.4,0.9c1.7,1.1,1.2,6.4-0.6,7.2
		c-15.7-0.6-25.5-0.9-36.8-0.9c-12.4,0-22.3,0.6-33.6,0.9c-1.7-0.9-2.3-5.5-0.6-7.2l4.9-0.9c16.2-2.9,16.8-5.8,16.8-36.2V246.5
		c0-30.4-2-35.4-17.1-36.5l-7.5-0.6c-1.7-1.2-1.1-6.4,0.6-7.2c14.2,0.3,24.1,0.9,36.5,0.9c11.3,0,21.2-0.3,33.6-0.9
		c1.8,0.9,2.3,6.1,0.6,7.2l-5.5,0.6c-16.8,1.8-17.4,6.1-17.4,36.5v33.3c0,9,0.6,9.3,14.5,9.3h82.9c13.9,0,14.5-0.3,14.5-9.3v-33.3
		c0-30.4-0.6-34.8-17.7-36.5l-5.5-0.6c-1.7-1.2-1.2-6.4,0.6-7.2c13.3,0.6,23.2,0.9,35.1,0.9c11.3,0,21.2-0.3,34.2-0.9
		c1.7,0.9,2.3,6.1,0.6,7.2l-6.1,0.6c-16.8,1.8-17.4,6.1-17.4,36.5v104.3c0,30.4,0.6,34.2,17.4,36.2l6.9,0.9c1.7,1.1,1.2,6.4-0.6,7.2
		c-13.9-0.6-23.8-0.9-35-0.9c-11.9,0-22.3,0.3-35.1,0.9c-1.7-0.9-2.3-5.5-0.6-7.2l5.5-0.9c17.7-2.9,17.7-5.8,17.7-36.2V310
		c0-8.7-0.6-9.3-14.5-9.3H949.2z"/>
	<path class="st1" d="M1292.6,345.1c0,8.7,0,43.2,0.8,50.7c-0.6,1.7-2.3,3.2-5.5,3.2c-3.5-4.9-11.9-15.1-37.1-43.7l-67.2-76.5
		c-7.8-9-27.5-32.7-33.6-39.1h-0.6c-1.2,3.5-1.4,10.1-1.4,18.8v63.2c0,13.6,0.3,51.3,5.2,60c1.7,3.2,7.5,5,14.8,5.5l9,0.9
		c1.8,2.3,1.5,5.8-0.6,7.2c-13-0.6-23.2-0.9-33.9-0.9c-12.1,0-20,0.3-30.1,0.9c-2-1.4-2.3-5.5-0.6-7.2l7.8-0.9
		c6.7-0.9,11.3-2.6,12.8-5.8c4-10.4,3.8-45.8,3.8-59.7v-83.8c0-8.1-0.3-14.2-6.4-20.9c-4.1-4.1-11-6.1-18-7l-4.9-0.6
		c-1.7-1.7-1.7-6.1,0.6-7.3c12.2,0.8,27.5,0.8,32.7,0.8c4.6,0,9.6-0.3,13.3-0.8c5.8,14.8,40,53,49.5,63.7l28.1,31.6
		c20,22.3,34.2,38.6,47.8,52.5h0.6c1.2-1.4,1.2-6.1,1.2-12.2v-62c0-13.6-0.3-51.3-5.8-60c-1.7-2.6-6.4-4.4-18-5.8l-4.9-0.6
		c-2-1.7-1.8-6.4,0.5-7.3c13.3,0.6,23.2,0.8,34.2,0.8c12.5,0,20-0.3,29.8-0.8c2.3,1.4,2.3,5.5,0.6,7.3l-4.1,0.6
		c-9.3,1.5-15.1,3.8-16.2,6.1c-4.9,10.4-4.3,46.4-4.3,59.7L1292.6,345.1L1292.6,345.1z"/>
	<path class="st1" d="M1369.2,399c-24.3,0-39.7-7.5-45.2-10.7c-3.4-6.4-7.2-26.9-7.8-40.6c1.5-2,5.8-2.6,7-0.9
		c4.3,14.8,16.2,43.2,49.8,43.2c24.3,0,36.2-15.9,36.2-33.4c0-12.7-2.6-26.9-23.8-40.5l-27.5-18c-14.5-9.6-31.3-26.1-31.3-49.8
		c0-27.5,21.4-49.8,59.1-49.8c9,0,19.4,1.7,27,3.8c3.8,1.2,7.8,1.8,10.1,1.8c2.6,7,5.2,23.2,5.2,35.4c-1.1,1.7-5.8,2.6-7.3,0.9
		c-3.7-13.9-11.6-32.7-39.4-32.7c-28.4,0-34.5,18.8-34.5,32.2c0,16.8,13.9,29,24.6,35.6l23.2,14.5c18.3,11.3,36.2,28.1,36.2,55.6
		C1430.9,377.2,1406.8,399,1369.2,399"/>
	<path class="st1" d="M1602.9,283.4c-16.5,0-17.2,0.7-17.2,11v48.4c0,36.1,1.7,40.9,21,42.9l10,1c2.1,1.4,1.4,7.6-0.7,8.6
		c-18.5-0.7-30.2-1-43.6-1c-14.8,0-26.5,0.7-39.8,1c-2.1-1-2.8-6.5-0.7-8.6l5.8-1c19.2-3.4,19.9-6.9,19.9-42.9V219.2
		c0-36.1-2.4-41.9-20.3-43.3l-8.9-0.7c-2-1.4-1.4-7.6,0.7-8.6c16.8,0.3,28.5,1,43.3,1c13.4,0,25.1-0.3,39.8-1c2.1,1,2.8,7.2,0.7,8.6
		l-6.5,0.7c-19.9,2.1-20.6,7.2-20.6,43.3v39.5c0,10.6,0.7,11,17.2,11h98.2c16.5,0,17.2-0.3,17.2-11v-39.5c0-36.1-0.7-41.2-21-43.3
		l-6.5-0.7c-2.1-1.4-1.4-7.6,0.7-8.6c15.8,0.7,27.5,1,41.6,1c13.4,0,25.1-0.3,40.5-1c2,1,2.7,7.2,0.7,8.6l-7.2,0.7
		c-19.9,2.1-20.6,7.2-20.6,43.3v123.7c0,36.1,0.7,40.5,20.6,42.9l8.2,1c2.1,1.4,1.4,7.6-0.7,8.6c-16.5-0.7-28.2-1-41.5-1
		c-14.1,0-26.5,0.3-41.6,1c-2.1-1-2.8-6.5-0.7-8.6l6.5-1c21-3.4,21-6.9,21-42.9v-48.4c0-10.3-0.7-11-17.2-11h-98.3V283.4z"/>
	<path class="st1" d="M1773.1,300.7c0-58,43.5-102.3,103.2-102.3c66.9,0,100.5,48.4,100.5,99.4c0,58.5-44.6,101.1-100.5,101.1
		C1811.9,399,1773.1,352.9,1773.1,300.7 M1947.8,306.8c0-47.8-21.1-99.4-76.5-99.4c-30.1,0-69.2,20.6-69.2,84
		c0,42.9,20.9,98.5,77.9,98.5C1914.8,390,1947.8,363.9,1947.8,306.8"/>
	<path class="st1" d="M2029.3,350.9c0,30.4,0.6,34.2,19.1,36.2l7.9,0.9c1.7,1.4,1.2,6.4-0.6,7.2c-16.5-0.6-26.1-0.9-37.7-0.9
		c-12.2,0-22.6,0.3-35.3,0.9c-1.7-0.9-2.3-5.5-0.6-7.2l6.1-0.9c16.8-2.3,17.4-5.8,17.4-36.2v-107c0-24.6-0.6-29.6-13.6-31l-10.4-1.1
		c-2-1.7-1.7-6.1,0.6-7.2c15.3-2,33.3-2.3,57.4-2.3c24,0,42,3.2,55.6,11.6c13.3,8.4,23.2,23.5,23.2,43.4c0,26.7-16.5,40-29,46.1
		c-12.8,6.1-28.1,8.7-40,8.7c-2-0.9-2-5.2-0.3-5.8c31.3-5.8,42.6-23.5,42.6-48.7c0-28.1-16.5-46.3-46.6-46.3
		c-15.3,0-15.6,1.1-15.6,10.4v129.2H2029.3z"/>
	<path class="st1" d="M2149.8,246.5c0-30.4-0.6-35-17.4-36.5l-7.2-0.6c-1.8-1.2-1.2-6.4,0.6-7.3c14.2,0.6,23.5,0.9,36.5,0.9
		c11.3,0,21.2-0.3,33.6-0.9c1.7,0.9,2.3,6.1,0.6,7.3l-5.5,0.6c-16.8,1.7-17.4,6.1-17.4,36.5v33.4c0,5.5,0.6,11,3.8,11
		c2.6,0,6.1-1.8,8.1-3.2c4.1-3.5,11.6-11,14.8-13.9l31.3-31c5.5-5.2,19.7-20,22.6-24.1c1.5-2,2-3.5,2-4.6s-1.2-2-4.9-2.9l-7.8-1.7
		c-2-2-1.8-5.8,0.6-7.3c10.1,0.6,21.7,0.9,31.9,0.9c10.1,0,20-0.3,28.7-0.9c2,1.5,2.3,5.5,0.6,7.3c-7.5,0.6-18.8,3.5-27,8.1
		c-8.1,4.6-24.3,18.2-40.6,33.6l-26.1,24.6c-4,4.1-6.7,6.7-6.7,9c0,2,1.7,4.3,5.5,9c27.5,31.6,49.8,57.7,72.4,81.4
		c7,7,13.3,10.8,23.2,11.9l7.8,0.9c2,1.4,1.5,6.3-0.6,7.2c-7.5-0.6-18.8-0.9-32.5-0.9c-11.9,0-22,0.3-35.4,0.9
		c-2-0.6-2.9-5.5-1.2-7.2l6.7-1.2c4.1-0.6,7-1.4,7-2.9c0-1.8-2-4.1-4.1-6.7c-5.5-6.9-13-14.8-24-27.2l-23.2-26.1
		c-16.5-18.5-21.2-24.3-28.1-24.3c-4.4,0-4.9,3.8-4.9,13.9v37.4c0,30.4,0.6,34.5,16.8,36.2l7.8,0.9c1.7,1.1,1.2,6.3-0.6,7.2
		c-14.2-0.6-24.1-0.9-35.4-0.9c-11.9,0-21.7,0.3-33.6,0.9c-1.7-0.9-2.3-5.2-0.6-7.2l5.8-0.9c15.4-2.3,16-5.8,16-36.2L2149.8,246.5
		L2149.8,246.5z"/>
	<path class="st1" d="M2348.7,247.1c0-30.7-0.6-35.6-17.7-37.1l-7.2-0.6c-1.8-1.2-1.2-6.4,0.6-7.3c14.5,0.6,24.3,0.9,36.5,0.9
		c11.6,0,21.4-0.3,35.9-0.9c1.7,0.9,2.3,6.1,0.6,7.3l-7.2,0.6c-17.1,1.4-17.7,6.3-17.7,37.1v103.1c0,30.7,0.6,34.8,17.7,36.8
		l7.2,0.9c1.7,1.2,1.2,6.4-0.6,7.2c-14.5-0.6-24.3-0.9-35.9-0.9c-12.2,0-22,0.3-36.5,0.9c-1.7-0.9-2.3-5.5-0.6-7.2l7.2-0.9
		c17.1-2,17.7-6.1,17.7-36.8V247.1z"/>
	<path class="st1" d="M2599.3,345.1c0,8.7,0,43.2,0.9,50.7c-0.6,1.7-2.3,3.2-5.5,3.2c-3.5-4.9-11.9-15.1-37.1-43.7l-67.2-76.5
		c-7.8-9-27.6-32.7-33.6-39.1h-0.6c-1.2,3.5-1.5,10.1-1.5,18.8v63.2c0,13.6,0.3,51.3,5.2,60c1.7,3.2,7.5,5,14.8,5.5l9,0.9
		c1.7,2.3,1.5,5.8-0.6,7.2c-13-0.6-23.2-0.9-33.9-0.9c-12.2,0-20,0.3-30.1,0.9c-2-1.4-2.3-5.5-0.6-7.2l7.8-0.9
		c6.7-0.9,11.3-2.6,12.7-5.8c4.1-10.4,3.8-45.8,3.8-59.7v-83.8c0-8.1-0.3-14.2-6.4-20.9c-4.1-4.1-11-6.1-18-7l-4.9-0.6
		c-1.7-1.7-1.7-6.1,0.6-7.3c12.2,0.8,27.5,0.8,32.7,0.8c4.6,0,9.6-0.3,13.3-0.8c5.8,14.8,40,53,49.5,63.7l28.1,31.6
		c20,22.3,34.2,38.6,47.8,52.5h0.6c1.2-1.4,1.2-6.1,1.2-12.2v-62c0-13.6-0.3-51.3-5.8-60c-1.7-2.6-6.4-4.4-18-5.8l-4.9-0.6
		c-2-1.7-1.8-6.4,0.6-7.3c13.3,0.6,23.2,0.8,34.2,0.8c12.5,0,20-0.3,29.8-0.8c2.3,1.4,2.3,5.5,0.6,7.3l-4.1,0.6
		c-9.3,1.5-15.1,3.8-16.3,6.1c-4.9,10.4-4.3,46.4-4.3,59.7v69.4H2599.3z"/>
	<path class="st1" d="M2675.4,399c-24.3,0-39.7-7.5-45.2-10.7c-3.5-6.4-7.2-26.9-7.8-40.6c1.4-2,5.8-2.6,6.9-0.9
		c4.4,14.8,16.3,43.2,49.8,43.2c24.3,0,36.2-15.9,36.2-33.4c0-12.7-2.6-26.9-23.8-40.5l-27.5-18c-14.5-9.6-31.3-26.1-31.3-49.8
		c0-27.5,21.5-49.8,59.1-49.8c9,0,19.4,1.7,26.9,3.8c3.8,1.2,7.8,1.8,10.1,1.8c2.6,7,5.2,23.2,5.2,35.4c-1.2,1.7-5.8,2.6-7.3,0.9
		c-3.8-13.9-11.6-32.7-39.4-32.7c-28.4,0-34.5,18.8-34.5,32.2c0,16.8,13.9,29,24.6,35.6l23.2,14.5c18.3,11.3,36.2,28.1,36.2,55.6
		C2737.2,377.2,2713.1,399,2675.4,399"/>
	<g>
		<path class="st1" d="M3508,317.3c-12.5,9.7-24.3,13.7-39,13.7c-25.4,0-42.6-14.2-42.6-44.2c0-30.7,17.2-45.5,43-45.5
			c24,0,39,14.4,39.4,41.7c0,3.1-0.2,6.1-0.7,10.3h-58c1.8,12.8,8.9,18.4,20,18.4c11.5,0,19.9-2.3,30.6-8.7L3508,317.3z
			 M3487.6,277.6c-0.9-12.6-7.5-18.6-18.3-18.6c-10.6,0-17.5,5.6-19.3,18.6H3487.6z"/>
		<path class="st1" d="M3599,246.2c-15.7-6.1-25.2-8.1-35.4-8.1c-7.9,0-13.6,4-13.6,9.4c0,7.6,5.9,9.6,28.1,17
			c21.1,7.2,30.2,15,30.2,33.7c0,20.6-15,32.8-38.5,32.8c-14.5,0-35.8-5.8-50.3-14.6l9.3-19.5c15.9,8.5,29,12.3,39.7,12.3
			c8.1,0,12.9-3.4,12.9-9.6c0-7-3.9-9.6-25.6-16.1c-19.9-5.9-31.5-15.5-31.5-34.1c0-18.4,13.4-31.9,37.2-31.9
			c13.1,0,27.2,2.2,44.8,9.9L3599,246.2z"/>
		<path class="st1" d="M3696.2,318.2c-12,9.2-22,12.8-38.1,12.8c-23.1,0-40.8-15.9-40.8-44.4c0-29.2,17.3-45.3,41.9-45.3
			c11.1,0,22.4,2.3,33.8,9l-7,15.9c-9.5-4.3-17.5-5.1-24.2-5.1c-12.7,0-20.4,9.6-20.4,25.4c0,15.3,7.5,24.5,20.1,24.5
			c8.9,0,17.5-2.2,27-7.6L3696.2,318.2z"/>
		<path class="st1" d="M3732.4,256.4c9.1-9.9,18.4-15,29.9-15c18.6,0,26.9,10.1,26.9,33.4v54.7h-24.5v-46.4
			c0-12.3-1.8-17.3-11.6-17.3c-7.9,0-14.7,4.7-20.6,12.1v51.6H3708v-117h24.5L3732.4,256.4L3732.4,256.4z"/>
		<path class="st1" d="M3891.3,286.7c0,27.8-16.8,44.4-44.4,44.4c-27.2,0-44-16.6-44-44.4c0-28.5,16.8-45.3,44.2-45.3
			C3874.4,241.4,3891.3,258.1,3891.3,286.7z M3867.3,286.7c0-17.3-7.7-25.4-20.2-25.4s-20.2,8.1-20.2,25.4c0,16.6,7.5,24.5,20,24.5
			C3859.6,311.2,3867.3,303.3,3867.3,286.7z"/>
		<path class="st1" d="M3990.5,286.7c0,27.8-16.8,44.4-44.4,44.4c-27.2,0-44-16.6-44-44.4c0-28.5,16.8-45.3,44.2-45.3
			C3973.6,241.4,3990.5,258.1,3990.5,286.7z M3966.5,286.7c0-17.3-7.7-25.4-20.2-25.4s-20.2,8.1-20.2,25.4c0,16.6,7.5,24.5,20,24.5
			C3958.8,311.2,3966.5,303.3,3966.5,286.7z"/>
		<path class="st1" d="M4005.6,329.4V212.5h24.5v116.9H4005.6z"/>
		<path class="st1" d="M4092.8,322.7h-17.5v-28h-27.7V277h27.7v-28h17.5v28h27.9v17.7h-27.9L4092.8,322.7L4092.8,322.7z"/>
		<path class="st1" d="M3439.7,546.1V436h24.9v110.1H3439.7z"/>
		<path class="st1" d="M3511.1,471.4c9.1-8.5,18.1-13.3,29.2-13.3c18.8,0,27.6,10.1,27.6,33.4v54.7h-24.5v-48c0-12.1-2-17-11.6-17
			c-7.9,0-14.7,4.3-20.6,11.5v53.4h-24.5v-86.4h24.5L3511.1,471.4L3511.1,471.4z"/>
		<path class="st1" d="M3599.6,421.6c7.3,0,14,4.3,14,12.8s-6.6,12.8-14,12.8c-7.3,0-14-4.3-14-12.8S3592.2,421.6,3599.6,421.6z
			 M3587.4,546.1v-86.4h24.5v86.4H3587.4z"/>
		<path class="st1" d="M3686.3,541.9c-6.6,3.2-15.4,5.2-23.3,5.2c-19.3,0-27.4-9-27.4-31.6v-35.7h-12.3v-20.2h12.3v-20h24.3v20h22.6
			v20.2h-22.6v34.6c0,9,3,12.4,12.2,12.4c3.8,0,6.4,0,11.8-0.5L3686.3,541.9z"/>
		<path class="st1" d="M3710.3,421.6c7.3,0,14,4.3,14,12.8s-6.6,12.8-14,12.8c-7.3,0-14-4.3-14-12.8S3702.9,421.6,3710.3,421.6z
			 M3698.1,546.1v-86.4h24.5v86.4H3698.1z"/>
		<path class="st1" d="M3746.3,464.2c18.6-4.9,27.6-6.3,36.5-6.3c24.7,0,34,10.8,34,35.9v52.3h-24v-10.3
			c-7.2,6.7-15.2,11.9-26.5,11.9c-18.6,0-28.6-7-28.6-26.9c0-18.4,12-27.1,36.2-27.1h19c0-12.1-2.9-16.2-14.5-16.2
			c-6.8,0-16.1,1.3-28.5,4.1L3746.3,464.2z M3777.1,507.8c-11.1,0-16.8,1.6-16.8,10.1c0,7.6,5,11.9,13.8,11.9
			c7.5,0,13.8-3.8,18.8-9.2v-12.8H3777.1z"/>
		<path class="st1" d="M3889.7,541.9c-6.6,3.2-15.4,5.2-23.3,5.2c-19.3,0-27.4-9-27.4-31.6v-35.7h-12.3v-20.2h12.3v-20h24.3v20h22.6
			v20.2h-22.6v34.6c0,9,3,12.4,12.2,12.4c3.8,0,6.4,0,11.8-0.5L3889.7,541.9z"/>
		<path class="st1" d="M3913.7,421.6c7.3,0,14,4.3,14,12.8s-6.6,12.8-14,12.8c-7.3,0-14-4.3-14-12.8
			C3899.8,425.9,3906.4,421.6,3913.7,421.6z M3901.5,546.1v-86.4h24.5v86.4H3901.5z"/>
		<path class="st1" d="M3970.3,546.1l-34.5-86.4h24.5l18.8,47.8c1.8,4.3,2.9,9,4.1,13.5c1.4-4.5,2.7-9.2,4.3-13.5l20-47.8h24.5
			l-35.6,86.4L3970.3,546.1L3970.3,546.1z"/>
		<path class="st1" d="M4114.5,534c-12.5,9.7-24.3,13.7-39,13.7c-25.4,0-42.6-14.2-42.6-44.2c0-30.7,17.2-45.5,43-45.5
			c24,0,39,14.4,39.4,41.7c0,3.1-0.2,6.1-0.7,10.3h-58c1.8,12.8,8.9,18.4,20,18.4c11.5,0,19.9-2.3,30.6-8.7L4114.5,534z M4094,494.3
			c-0.9-12.6-7.5-18.6-18.3-18.6c-10.6,0-17.5,5.6-19.3,18.6H4094z"/>
	</g>
	<g>
		<rect x="3104.1" class="st1" width="9" height="714.8"/>
	</g>
</g>
</svg>
