<?xml version="1.0" encoding="utf-8"?>
<!-- Generator: Adobe Illustrator 25.2.0, SVG Export Plug-In . SVG Version: 6.00 Build 0)  -->
<svg version="1.1" id="Слой_1" xmlns="http://www.w3.org/2000/svg" xmlns:xlink="http://www.w3.org/1999/xlink" x="0px" y="0px"
	 viewBox="0 0 314.8 67.8" style="enable-background:new 0 0 314.8 67.8;" xml:space="preserve">
<style type="text/css">
	.st0{clip-path:url(#SVGID_2_);fill:url(#SVGID_3_);}
	.st1{clip-path:url(#SVGID_5_);fill:#002F54;}
	.st2{clip-path:url(#SVGID_7_);fill:url(#SVGID_8_);}
	.st3{clip-path:url(#SVGID_10_);fill:#002F54;}
</style>
<g>
	<defs>
		<path id="SVGID_1_" d="M37.7,55c4,0,7.9-0.6,11.3-1.8c0.9-0.3,1.7-0.6,2.4-1c-0.9,2.3-2.3,4.2-4.1,5.7c-3.6,2.6-7.8,4.4-12.3,5.1
			C36.1,61.1,37,58.3,37.7,55 M18.7,60.6c-0.1-0.1-0.2-0.1-0.3-0.2c-1.6-0.8-2.2-4.3-1.4-9.7c3.1,1.4,6.4,2.5,9.9,3.2
			c2.7,0.6,5.3,0.9,7.9,1c-1.3,5.5-2.9,8.4-4,8.4c-0.1,0-0.1,0-0.2,0C26.3,63.4,22.3,62.4,18.7,60.6 M3.9,43.1
			c-0.2-0.9-0.4-1.9-0.5-2.8c1,1.4,2.1,2.7,3.5,4c2.1,1.9,4.6,3.7,7.4,5.2c-0.6,3.2-0.7,6-0.4,8.3C9.2,54.1,5.6,49,3.9,43.1
			 M39.5,35.4c0-1.1,0-2.2,0-3.4c3.6-0.2,6.9-1.2,9.6-2.7c2.5,4.9,3.8,10.2,3.8,15.1c0,1.4-0.1,2.8-0.4,4.1c-1.3,0.8-2.8,1.5-4.4,2
			c-3,1-6.3,1.5-9.8,1.6C39.1,47.1,39.5,41.2,39.5,35.4 M27.5,51.1c-3.5-0.8-6.9-1.9-9.9-3.3c1-4.5,2.8-9.9,5.8-15.9
			c0.4-0.9,0.9-1.7,1.3-2.6c2.1,0.9,4.3,1.7,6.6,2.2c1.8,0.4,3.6,0.6,5.3,0.7c0,1.1,0,2.2,0,3.3c0,6.7-0.5,12.3-1.3,16.7
			C32.8,52,30.1,51.7,27.5,51.1 M8.9,42.1c-2.4-2.2-4.1-4.6-5-7c0.7-2.6,2-5.3,3.9-7.8c1.8-2.4,4.1-4.6,6.7-6.5
			c0.8,1.4,1.8,2.7,3.1,3.9c1.3,1.2,2.8,2.3,4.4,3.2c-0.5,0.9-0.9,1.7-1.3,2.6c-2.5,5.2-4.6,10.8-5.8,15.9
			C12.7,45.2,10.7,43.7,8.9,42.1 M37.6,15.5c3.3,2.4,6.2,5.5,8.7,9.2c0.5,0.7,0.9,1.4,1.3,2.1c-2.3,1.3-5.2,2.1-8.3,2.3
			C39.1,24.3,38.5,19.5,37.6,15.5 M31.9,28.7c-2.1-0.4-4-1.1-5.9-1.9c2.7-4.7,5.6-8.7,8.5-11.8c0.9,3.5,1.7,8.3,2,14.2
			C35,29.2,33.4,29,31.9,28.7 M19.7,22.7c-1.2-1.1-2.1-2.3-2.7-3.4c2.7-1.6,5.7-2.9,8.8-3.9c1.9-0.6,3.8-1,5.7-1.3
			c-2.7,3.1-5.5,7-8,11.4C22.1,24.7,20.8,23.7,19.7,22.7 M13.5,13.6c0,0.1-0.1,0.3-0.1,0.4c-0.3,1.4-0.3,2.7,0.1,4.1
			c-3.1,2.1-5.8,4.6-7.9,7.5c-0.7,0.9-1.2,1.7-1.8,2.6C5.4,22.3,8.9,17.2,13.5,13.6 M16.2,14.6c0.3-1.5,1.2-2.8,2.6-3.9
			c3.3-1,7.2-0.8,11.3,0.7c-1.7,0.3-3.4,0.7-5.1,1.2c-3.2,0.9-6.1,2.2-8.9,3.8C16,15.8,16.1,15.2,16.2,14.6 M39.4,10.8
			c1-0.6,1.9-1.1,2.6-1.3c1.4,0.6,2.9,1.3,4.2,2.2C44.1,11.3,41.8,11,39.4,10.8 M34.6,7.8c1.2,0.1,2.4,0.3,3.7,0.6
			c-0.8,0.4-1.6,1-2.5,1.6C35.4,9.2,35,8.4,34.6,7.8 M31.5,8.9c-1.3-0.5-2.6-0.9-3.8-1.2c1-0.1,2-0.2,3.1-0.2c0.5,0,1.1,0.6,1.7,1.7
			C32.1,9.2,31.8,9,31.5,8.9 M0,35.5c0,2.9,0.4,5.8,1.2,8.4c0,0.2,0.1,0.4,0.1,0.5c0,0,0,0.1,0,0.1C5.3,57.1,17,66.3,30.8,66.3
			c6.4,0,12.3-2,17.3-5.3c0,0,0.1-0.1,0.1-0.1c0.3-0.2,0.6-0.4,0.9-0.6C54.7,56.1,58.9,50,60.6,43c0.1-0.3,0.2-0.7,0.3-1
			c0-0.1,0-0.2,0-0.2c0.4-2,0.6-4.1,0.6-6.3c0-4.2-0.8-8.2-2.4-12c-0.3-0.7-1.1-1.1-1.9-0.8c-0.7,0.3-1.1,1.1-0.8,1.9
			c1.5,3.4,2.2,7.1,2.2,10.9c0,2.3-0.3,4.6-0.8,6.7c-0.4,1.4-1.2,2.6-2.2,3.7c0-0.5,0-1,0-1.5c0-5.5-1.5-11.3-4.3-16.7
			c2.1-1.8,3.4-4,3.8-6.4c0.1-0.8-0.4-1.5-1.1-1.7c-0.8-0.1-1.5,0.4-1.7,1.1c-0.3,1.6-1.1,3.1-2.5,4.4c-0.4-0.7-0.8-1.3-1.3-2
			c-2.5-3.7-5.5-6.9-8.8-9.4c4.3,0.3,8.3,1.3,11.5,3.1c0.5,0.3,1.2,0.3,1.6-0.1c0.6-0.5,0.7-1.4,0.2-2c-4.6-6.5-12.6-10-22.5-10
			C13.8,4.7,0,18.5,0,35.5"/>
	</defs>
	<clipPath id="SVGID_2_">
		<use xlink:href="#SVGID_1_"  style="overflow:visible;"/>
	</clipPath>
	
		<radialGradient id="SVGID_3_" cx="-72.08" cy="612.88" r="1" gradientTransform="matrix(50.9117 0 0 50.9118 3728.5076 -31186.6348)" gradientUnits="userSpaceOnUse">
		<stop  offset="0" style="stop-color:#FFFFFF"/>
		<stop  offset="5.970375e-02" style="stop-color:#E7F6FD"/>
		<stop  offset="0.1825" style="stop-color:#AFE2FA"/>
		<stop  offset="0.3582" style="stop-color:#38C6F4"/>
		<stop  offset="0.544" style="stop-color:#00AEEF"/>
		<stop  offset="1" style="stop-color:#002F54"/>
	</radialGradient>
	<rect y="4.7" class="st0" width="61.6" height="61.6"/>
</g>
<g>
	<defs>
		<rect id="SVGID_4_" width="314.8" height="67.8"/>
	</defs>
	<clipPath id="SVGID_5_">
		<use xlink:href="#SVGID_4_"  style="overflow:visible;"/>
	</clipPath>
	<path class="st1" d="M306.9,26.5c4.5,0,7.1,2.2,7.1,6.2c0,3.8-2.5,6-6.6,6h-2.9v5.8h-3.8v-18H306.9z M304.4,35.6h2.3
		c2.2,0,3.3-1,3.3-2.9c0-1.9-1.2-3-3.5-3h-2.2V35.6z M293.5,37.3c0,2.6-1,3.9-3.1,3.9c-2.1,0-3.2-1.3-3.2-3.9V26.5h-3.8V37
		c0,2.6,0.6,4.5,1.9,5.8c1.2,1.2,2.9,1.8,5.1,1.8c3.2,0,6.9-1.3,6.9-7.6V26.5h-3.8V37.3z M273,26.3c3.9,0,8,2.4,8,9.2
		c0,6.7-4.2,9.1-8,9.1c-3.9,0-8.1-2.4-8.1-9.1C264.9,28.7,269.1,26.3,273,26.3 M273,41.3c1.5,0,4.1-0.7,4.1-5.8s-2.6-5.8-4.1-5.8
		c-2.6,0-4.1,2-4.1,5.8C268.9,39.2,270.3,41.3,273,41.3 M261,39c0.6,1.3,1.2,2.4,2.4,2.4h0.9v3l-0.1,0c0,0-0.7,0.2-1.9,0.2
		c-3,0-4-2.1-4.8-3.9c-0.7-1.5-1.3-2.8-2.8-2.8H253v6.6h-3.8v-18h6.4c4.7,0,6.8,1.8,6.8,5.7c0,2.4-1.4,3.9-2.9,4.5
		C260.1,37.4,260.6,38.2,261,39 M253,34.9h2.1c2.1,0,3.5-1,3.5-2.6c0-1.7-1.2-2.6-3.2-2.6H253V34.9z M239,37.9h4v0.2
		c0,1.2-0.4,3.1-3.2,3.1c-2.6,0-4.2-2.1-4.2-5.7c0-3.7,1.5-5.8,4.1-5.8c3.1,0,3.2,3.1,3.2,3.3l0,0.2l3.6-0.6v-0.2
		c0-1.3-1.2-6.1-6.8-6.1c-5.1,0-8,3.3-8,9.2c0,5.7,3,9.1,8,9.1c5.1,0,6.9-3.5,6.9-6.6v-3.1H239V37.9z M227.5,26.5H223l-6,8.1v-8.1
		h-3.9v18h3.9v-8.3l6.1,8.3h4.6l-7-9.1L227.5,26.5z M205.8,37.6l-6.3-11.1h-3.9v18h3.8V33.7l6.3,10.7h3.9v-18h-3.8V37.6z
		 M188.1,26.6l6.6,17.9h-4l-1.5-4.4h-6l-1.5,4.4h-4l6.6-18h3.8L188.1,26.6z M186.1,31.4l-1.9,5.7h3.9L186.1,31.4z M174.1,35
		c1.4,0.4,3.2,1.7,3.2,4.4c0,3.3-2.3,5.1-6.3,5.1h-7.6v-18h6.9c3.9,0,5.9,1.6,5.9,4.8C176.1,33.8,174.9,34.7,174.1,35 M169.8,33.8
		c1.6,0,2.3-0.7,2.3-2.1c0-1.4-0.9-2.1-2.8-2.1h-2.1v4.2H169.8z M167.2,41.3h3c2,0,2.9-0.7,2.9-2.3c0-1.9-1.6-2.3-2.9-2.3h-2.9V41.3
		z M147.5,26.5c5.6,0,8.9,3.5,8.9,9.3c0,5.5-3,8.7-8.2,8.7h-6.1v-18H147.5z M146,41.3h2.2c2.8,0,4.4-2.1,4.4-5.6
		c0-4-1.7-6.1-5.2-6.1H146V41.3z M132.6,26.5h-3.8v18h11.6v-3.2h-7.8V26.5z M123.6,39c0.6,1.3,1.2,2.4,2.4,2.4h0.9v3l-0.1,0
		c0,0-0.7,0.2-1.9,0.2c-3,0-4-2.1-4.8-3.9c-0.7-1.5-1.3-2.8-2.8-2.8h-1.7v6.6h-3.8v-18h6.4c4.7,0,6.8,1.8,6.8,5.7
		c0,2.4-1.4,3.9-2.9,4.5C122.8,37.4,123.2,38.2,123.6,39 M115.7,34.9h2.1c2.1,0,3.4-1,3.4-2.6c0-1.7-1.2-2.6-3.2-2.6h-2.4V34.9z
		 M101.6,26.3c3.9,0,8,2.4,8,9.2c0,6.7-4.2,9.1-8,9.1c-3.9,0-8.1-2.4-8.1-9.1C93.6,28.7,97.7,26.3,101.6,26.3 M101.6,41.3
		c1.5,0,4.1-0.7,4.1-5.8s-2.6-5.8-4.1-5.8c-2.6,0-4.1,2-4.1,5.8C97.5,39.2,99,41.3,101.6,41.3 M88.7,26.5H93l-5.2,18h-4.3l-3.1-11.3
		l-3.2,11.3h-4.3l-5.2-18h4.5l3,13.1l3.6-13.1H82l3.5,13.1L88.7,26.5z"/>
</g>
<g>
	<defs>
		<path id="SVGID_6_" d="M110,374c4.5-0.1,8.7-0.7,12.4-2c0.9-0.3,1.8-0.7,2.7-1c-1,2.5-2.6,4.7-4.6,6.2c-3.9,2.9-8.6,4.9-13.6,5.6
			C108.2,380.7,109.2,377.6,110,374 M89,380.2c-0.1-0.1-0.2-0.1-0.3-0.2c-1.7-0.9-2.5-4.8-1.5-10.7c3.4,1.5,7,2.7,10.9,3.5
			c2.9,0.6,5.8,1,8.7,1.2c-1.4,6.1-3.2,9.2-4.4,9.2c-0.1,0-0.1,0-0.2,0C97.4,383.2,93,382.1,89,380.2 M72.8,360.9
			c-0.3-1-0.4-2.1-0.5-3.1c1.1,1.5,2.3,3,3.9,4.4c2.3,2.1,5,4,8.1,5.7c-0.6,3.5-0.8,6.6-0.4,9.2C78.6,373,74.6,367.4,72.8,360.9
			 M112,352.4c0-1.2,0-2.5-0.1-3.7c3.9-0.3,7.6-1.3,10.5-3c2.8,5.4,4.2,11.2,4.2,16.6c0,1.6-0.1,3.1-0.4,4.5c-1.4,0.9-3,1.6-4.9,2.2
			c-3.3,1.1-6.9,1.7-10.8,1.8C111.5,365.2,112,358.7,112,352.4 M98.7,369.7c-3.9-0.8-7.6-2.1-10.9-3.6c1.1-4.9,3.1-10.9,6.4-17.6
			c0.5-1,1-1.9,1.4-2.8c2.3,1,4.7,1.8,7.3,2.4c2,0.4,3.9,0.6,5.8,0.7c0,1.2,0.1,2.4,0.1,3.7c0,7.4-0.6,13.6-1.5,18.4
			C104.5,370.7,101.6,370.3,98.7,369.7 M78.3,359.8c-2.7-2.5-4.5-5.1-5.5-7.7c0.7-2.9,2.2-5.8,4.3-8.6c2-2.7,4.5-5.1,7.4-7.1
			c0.8,1.5,2,3,3.5,4.3c1.4,1.3,3,2.5,4.8,3.5c-0.5,0.9-1,1.9-1.5,2.9c-2.8,5.7-5.1,11.9-6.4,17.5C82.4,363.2,80.2,361.6,78.3,359.8
			 M109.8,330.5c3.6,2.7,6.9,6.1,9.6,10.1c0.5,0.8,1,1.5,1.5,2.3c-2.5,1.5-5.7,2.3-9.1,2.6C111.5,340.1,110.8,334.9,109.8,330.5
			 M103.6,344.9c-2.3-0.5-4.5-1.2-6.4-2.1c2.9-5.1,6.2-9.6,9.3-12.9c1,3.9,1.8,9.1,2.2,15.6C106.9,345.5,105.2,345.3,103.6,344.9
			 M90.1,338.4c-1.3-1.2-2.3-2.5-3-3.8c3-1.8,6.2-3.2,9.7-4.3c2.1-0.6,4.2-1.1,6.3-1.4c-3,3.4-6,7.7-8.8,12.5
			C92.7,340.5,91.3,339.5,90.1,338.4 M83.3,328.3c0,0.2-0.1,0.3-0.1,0.5c-0.3,1.5-0.3,3,0.1,4.5c-3.4,2.3-6.3,5.1-8.7,8.2
			c-0.7,0.9-1.4,1.9-1.9,2.9C74.4,338,78.2,332.4,83.3,328.3 M86.3,329.5c0.4-1.6,1.3-3.1,2.9-4.3c3.7-1.1,8-0.8,12.5,0.8
			c-1.9,0.3-3.8,0.8-5.7,1.3c-3.5,1-6.8,2.5-9.8,4.2C86.1,330.8,86.1,330.1,86.3,329.5 M111.8,325.3c1.1-0.7,2.1-1.2,2.9-1.4
			c1.6,0.6,3.1,1.4,4.6,2.5C117,325.8,114.5,325.4,111.8,325.3 M106.5,321.9c1.3,0.1,2.6,0.4,4,0.7c-0.9,0.5-1.8,1.1-2.7,1.8
			C107.5,323.5,107,322.7,106.5,321.9 M103.1,323.2c-1.4-0.5-2.8-1-4.2-1.3c1.1-0.1,2.2-0.2,3.4-0.2c0.5,0,1.2,0.7,1.9,1.9
			C103.8,323.5,103.5,323.3,103.1,323.2 M68.4,352.5c0,3.2,0.5,6.3,1.3,9.3c0.1,0.2,0.1,0.4,0.2,0.6c0,0,0,0.1,0,0.1
			c4.3,13.8,17.2,23.9,32.4,23.9c7,0,13.6-2.2,19-5.8c0.1,0,0.1-0.1,0.2-0.1c0.3-0.2,0.6-0.4,0.9-0.7c6.2-4.6,10.8-11.3,12.8-19
			c0.1-0.4,0.2-0.7,0.3-1.1c0-0.1,0-0.2,0-0.3c0.5-2.2,0.7-4.5,0.7-6.9c0-4.6-0.9-9-2.7-13.2c-0.3-0.8-1.3-1.2-2.1-0.8
			c-0.8,0.3-1.2,1.3-0.8,2.1c1.6,3.8,2.4,7.8,2.4,12c0,2.5-0.3,5-0.9,7.4c-0.5,1.5-1.3,2.9-2.4,4.1c0-0.5,0-1.1,0-1.6
			c0-6-1.7-12.4-4.8-18.4c2.3-2,3.7-4.4,4.2-7.1c0.2-0.9-0.4-1.7-1.3-1.8c-0.9-0.2-1.7,0.4-1.8,1.3c-0.3,1.8-1.3,3.4-2.7,4.8
			c-0.5-0.7-0.9-1.5-1.4-2.2c-2.8-4.1-6.1-7.6-9.7-10.4c4.7,0.3,9.1,1.5,12.7,3.4c0.6,0.3,1.3,0.3,1.8-0.1c0.7-0.6,0.8-1.6,0.2-2.2
			c-5.1-7.1-13.9-11-24.7-11C83.6,318.6,68.4,333.8,68.4,352.5"/>
	</defs>
	<clipPath id="SVGID_7_">
		<use xlink:href="#SVGID_6_"  style="overflow:visible;"/>
	</clipPath>
	
		<radialGradient id="SVGID_8_" cx="-72.08" cy="612.88" r="1" gradientTransform="matrix(56.5941 0 0 56.5943 4212.3901 -34354.2109)" gradientUnits="userSpaceOnUse">
		<stop  offset="0" style="stop-color:#FFFFFF"/>
		<stop  offset="5.970375e-02" style="stop-color:#E7F6FD"/>
		<stop  offset="0.1825" style="stop-color:#AFE2FA"/>
		<stop  offset="0.3582" style="stop-color:#38C6F4"/>
		<stop  offset="0.544" style="stop-color:#00AEEF"/>
		<stop  offset="1" style="stop-color:#002F54"/>
	</radialGradient>
	<rect x="68.4" y="318.6" class="st2" width="67.8" height="67.8"/>
</g>
<g>
	<defs>
		<rect id="SVGID_9_" x="0.6" y="316.9" width="203.4" height="93.8"/>
	</defs>
	<clipPath id="SVGID_10_">
		<use xlink:href="#SVGID_9_"  style="overflow:visible;"/>
	</clipPath>
	<path class="st3" d="M198.2,395.8c3.8,0,5.8,1.8,5.8,5.1c0,3.1-2,5-5.5,5h-2.4v4.8H193v-14.9H198.2z M196.2,403.3h1.9
		c1.8,0,2.8-0.8,2.8-2.4c0-1.6-1-2.5-2.9-2.5h-1.8V403.3z M187.2,404.7c0,2.2-0.8,3.2-2.6,3.2c-1.7,0-2.6-1.1-2.6-3.2v-8.9h-3.2v8.7
		c0,2.1,0.5,3.7,1.6,4.8c1,1,2.4,1.5,4.2,1.5c2.6,0,5.7-1.1,5.7-6.3v-8.7h-3.2V404.7z M170.2,395.6c3.2,0,6.6,2,6.6,7.6
		c0,5.6-3.4,7.5-6.6,7.5c-3.2,0-6.7-2-6.7-7.5C163.5,397.6,167,395.6,170.2,395.6 M170.2,408c1.3,0,3.4-0.6,3.4-4.8
		c0-4.1-2.1-4.8-3.4-4.8c-2.2,0-3.4,1.7-3.4,4.8C166.8,406.3,168,408,170.2,408 M160.3,406.1c0.5,1.1,1,2,2,2h0.8v2.4l-0.1,0
		c0,0-0.6,0.1-1.5,0.1c-2.5,0-3.3-1.7-3.9-3.2c-0.6-1.2-1-2.3-2.3-2.3h-1.4v5.5h-3.2v-14.9h5.3c3.8,0,5.6,1.5,5.6,4.7
		c0,2-1.2,3.2-2.4,3.8C159.6,404.8,159.9,405.4,160.3,406.1 M153.7,402.7h1.8c1.8,0,2.8-0.8,2.8-2.1c0-1.4-1-2.2-2.6-2.2h-2V402.7z
		 M142.1,405.2h3.3v0.2c0,1-0.3,2.6-2.6,2.6c-2.1,0-3.4-1.8-3.4-4.7c0-3,1.2-4.8,3.4-4.8c2.5,0,2.6,2.6,2.6,2.7l0,0.2l3-0.5v-0.1
		c0-1.1-1-5.1-5.6-5.1c-4.2,0-6.6,2.8-6.6,7.6c0,4.7,2.5,7.5,6.6,7.5c4.2,0,5.7-2.9,5.7-5.4v-2.6h-6.2V405.2z M132.6,395.8h-3.8
		l-4.9,6.7v-6.7h-3.2v14.9h3.2v-6.8l5,6.8h3.8l-5.8-7.5L132.6,395.8z M114.7,404.9l-5.2-9.2h-3.2v14.9h3.2v-8.9l5.2,8.9h3.2v-14.9
		h-3.2V404.9z M100.1,395.9l5.4,14.8h-3.3l-1.3-3.6H96l-1.2,3.6h-3.3l5.5-14.9L100.1,395.9L100.1,395.9z M98.4,399.8l-1.6,4.7h3.2
		L98.4,399.8z M88.5,402.8c1.1,0.3,2.6,1.4,2.6,3.6c0,2.7-1.9,4.2-5.2,4.2h-6.3v-14.9h5.7c3.2,0,4.9,1.3,4.9,4
		C90.1,401.8,89.2,402.5,88.5,402.8 M84.9,401.8c1.3,0,1.9-0.6,1.9-1.7c0-1.1-0.8-1.7-2.3-1.7h-1.8v3.4H84.9z M82.8,408h2.5
		c1.6,0,2.4-0.6,2.4-1.9c0-1.6-1.3-1.9-2.4-1.9h-2.4V408z M66.6,395.8c4.6,0,7.4,2.9,7.4,7.7c0,4.6-2.5,7.2-6.8,7.2h-5v-14.9H66.6z
		 M65.3,408h1.9c2.3,0,3.6-1.7,3.6-4.6c0-3.3-1.4-5-4.3-5h-1.2V408z M54.3,395.8h-3.2v14.9h9.6V408h-6.4V395.8z M46.8,406.1
		c0.5,1.1,1,2,2,2h0.8v2.4l-0.1,0c0,0-0.6,0.1-1.5,0.1c-2.5,0-3.3-1.7-3.9-3.2c-0.6-1.2-1-2.3-2.3-2.3h-1.4v5.5h-3.2v-14.9h5.3
		c3.8,0,5.6,1.5,5.6,4.7c0,2-1.2,3.2-2.4,3.8C46.2,404.8,46.5,405.4,46.8,406.1 M40.3,402.7H42c1.8,0,2.8-0.8,2.8-2.1
		c0-1.4-1-2.2-2.6-2.2h-2V402.7z M28.7,395.6c3.2,0,6.6,2,6.6,7.6c0,5.6-3.4,7.5-6.6,7.5c-3.2,0-6.7-2-6.7-7.5
		C22,397.6,25.4,395.6,28.7,395.6 M28.7,408c1.3,0,3.4-0.6,3.4-4.8c0-4.1-2.1-4.8-3.4-4.8c-2.2,0-3.4,1.7-3.4,4.8
		C25.3,406.3,26.5,408,28.7,408 M18,395.8h3.6l-4.3,14.9h-3.6l-2.6-9.3l-2.6,9.3H4.9l-4.3-14.9h3.7l2.5,10.8l3-10.8h2.7l2.9,10.8
		L18,395.8z"/>
</g>
</svg>
